<svg width="81" height="134" viewBox="0 0 81 134" fill="none" xmlns="http://www.w3.org/2000/svg">
<path d="M40.5 125.75V105.895" stroke="black" stroke-width="16" stroke-linecap="round" stroke-linejoin="round"/>
<path fill-rule="evenodd" clip-rule="evenodd" d="M1.5957 31.7105H20.6447C25.063 31.7105 28.6447 35.2922 28.6447 39.7105C28.6447 44.1288 25.063 47.7105 20.6447 47.7105H0.789551V58.1842H20.6447C25.063 58.1842 28.6447 61.7659 28.6447 66.1842C28.6447 70.6025 25.063 74.1842 20.6447 74.1842H1.5957C5.29738 92.2812 21.3089 105.895 40.5001 105.895C59.6912 105.895 75.7028 92.2812 79.4044 74.1842H66.9737C62.5554 74.1842 58.9737 70.6025 58.9737 66.1842C58.9737 61.7659 62.5554 58.1842 66.9737 58.1842H80.2105C80.2105 58.1842 80.2106 58.1842 80.2106 58.1842V47.7105C80.2106 47.7105 80.2105 47.7105 80.2105 47.7105H66.9737C62.5554 47.7105 58.9737 44.1288 58.9737 39.7105C58.9737 35.2922 62.5554 31.7105 66.9737 31.7105H79.4044C75.7028 13.6136 59.6912 0 40.5001 0C21.3089 0 5.29738 13.6136 1.5957 31.7105Z" fill="black"/>
</svg>
