<svg width="129" height="129" viewBox="0 0 129 129" fill="none" xmlns="http://www.w3.org/2000/svg">
<path d="M68.1362 97.7477C83.1546 97.7477 95.3733 85.533 95.3733 70.5126C95.3733 55.4942 83.1546 43.2734 68.1362 43.2734C53.1178 43.2734 40.899 55.4922 40.899 70.5126C40.899 85.533 53.1158 97.7477 68.1362 97.7477Z" fill="black"/>
<path d="M68.1362 105.058C87.2162 105.058 102.682 89.5905 102.682 70.5126C102.682 51.4307 87.2162 35.9668 68.1362 35.9668C49.0563 35.9668 33.5905 51.4307 33.5905 70.5126C33.5905 89.5905 49.0563 105.058 68.1362 105.058ZM68.1362 41.2598C84.2653 41.2598 97.389 54.3856 97.389 70.5146C97.389 86.6436 84.2653 99.7654 68.1362 99.7654C52.0072 99.7654 38.8835 86.6436 38.8835 70.5146C38.8835 54.3856 52.0072 41.2598 68.1362 41.2598Z" fill="black"/>
<path d="M121.879 108.273L119.863 30.7363C119.863 29.0673 118.509 27.7128 116.84 27.7128C116.392 27.7128 115.973 27.8156 115.592 27.991V27.9628C115.592 27.9628 115.513 28.0132 115.403 28.0898C115.114 28.249 114.852 28.4465 114.629 28.6864C112.417 30.5025 105.361 37.9038 104.772 47.9094C103.875 63.1717 111.289 69.3516 113.814 75.0135L111.799 108.271C111.799 109.94 115.169 111.295 116.838 111.295C118.509 111.297 121.879 109.942 121.879 108.273Z" fill="black"/>
<path d="M9.91289 61.0372L15.1313 63.6434C15.726 63.9417 16.381 64.1594 17.0663 64.3206L15.0507 109.676C15.0507 111.077 18.4208 112.212 20.0898 112.212C21.7587 112.212 25.1288 111.079 25.1288 109.676L23.1132 64.0888C23.8227 63.8651 24.506 63.593 25.1047 63.2261L28.9706 60.8719C31.7603 59.1707 33.8625 55.4277 33.8625 52.1603V31.8388C33.8625 30.1699 32.508 28.8154 30.8391 28.8154C29.1702 28.8154 27.8157 30.1699 27.8157 31.8388V50.1447H26.1367V31.8388C26.1367 30.1699 24.7822 28.8154 23.1132 28.8154C21.4443 28.8154 20.0898 30.1699 20.0898 31.8388V50.1447H18.4047V31.8388C18.4047 30.1699 17.0502 28.8154 15.3813 28.8154C13.7123 28.8154 12.3578 30.1699 12.3578 31.8388V50.1447H10.6829V32.4919C10.6829 30.8229 9.32836 29.4684 7.65942 29.4684C5.99049 29.4684 4.63599 30.8229 4.63599 32.4919V52.499C4.63599 55.861 6.90558 59.5335 9.91289 61.0372Z" fill="black"/>
</svg>
