<svg width="129" height="129" viewBox="0 0 129 129" fill="none" xmlns="http://www.w3.org/2000/svg">
<path d="M63.0441 51.8438L111.248 44.0258V109.381C111.248 114.79 107.218 119.111 100.927 120.703C94.0143 122.413 87.3503 119.519 86.0187 114.222C84.6931 108.913 89.2205 103.226 96.1271 101.498C99.246 100.729 102.324 100.888 104.892 101.794V62.4138L69.566 68.8765L69.4003 117.856C69.3707 122.49 65.1806 127.053 59.1677 128.538C52.3439 130.249 45.1828 127 44.4194 122.141C43.1115 116.897 47.5797 111.269 54.4271 109.553C57.5046 108.783 60.517 108.937 63.0441 109.825V51.8438ZM44.9224 75.8127L45.0941 15.275C45.0941 15.275 58.2799 14.5707 71.1758 34.7934C71.1758 34.7934 71.2113 24.3536 61.2982 16.7131C41.9396 3.19585 41.9929 0 41.9929 0C38.2999 0.432032 37.9212 3.23728 37.9212 3.23728V66.9827C35.1514 66.0121 31.8372 65.8405 28.4401 66.6868C20.924 68.5451 16.0118 74.7534 17.45 80.5236C18.2963 85.856 26.1557 89.4365 33.6659 87.5486C40.2648 85.9033 44.8751 80.9202 44.9106 75.8127H44.9224ZM79.9821 36.6931C82.2784 36.119 83.8822 34.385 83.8941 32.6095H83.9L83.9592 11.5465C83.9592 11.5465 88.5458 11.3038 93.0319 18.3406C93.0319 18.3406 93.0378 14.7068 89.5874 12.0555C82.8525 7.35046 82.8762 6.23783 82.8762 6.23783C81.5919 6.38579 81.4558 7.3623 81.4558 7.3623V29.5439C80.497 29.2006 79.3489 29.1414 78.1652 29.4314C75.5434 30.0765 73.8449 32.2426 74.342 34.2489C74.638 36.1072 77.3722 37.35 79.9821 36.6931ZM102.708 36.7464C104.306 36.3499 105.419 35.1366 105.431 33.8997L105.472 19.2284C105.472 19.2284 108.668 19.0567 111.793 23.9571C111.793 23.9571 111.799 21.424 109.402 19.5776C104.709 16.2988 104.72 15.5236 104.72 15.5236C103.827 15.6301 103.732 16.3107 103.732 16.3107V31.7632C103.063 31.5265 102.258 31.4851 101.436 31.6922C99.6129 32.142 98.4234 33.6452 98.7726 35.0419C98.9738 36.338 100.879 37.208 102.708 36.7464Z" fill="black"/>
</svg>
