<svg width="46" height="47" viewBox="0 0 46 47" fill="none" xmlns="http://www.w3.org/2000/svg">
<g id="Group">
<path id="Vector" d="M45.3217 23.5002C45.3217 10.9847 35.1764 0.839355 22.6609 0.839355C10.1453 0.839355 0 10.9847 0 23.5002C0 34.8105 8.28548 44.187 19.119 45.8858V30.05H13.3649V23.5002H19.119V18.5081C19.119 12.8278 22.5031 9.6922 27.6798 9.6922C30.1608 9.6922 32.7525 10.1353 32.7525 10.1353V15.7116H29.8955C27.0822 15.7116 26.2027 17.4573 26.2027 19.25V23.5002H32.4873L31.4835 30.05H26.2027V45.8858C37.0362 44.187 45.3217 34.8105 45.3217 23.5002Z" fill="#FF067E"/>
<path id="Vector_2" d="M31.4801 30.0502L32.4839 23.5004H26.1993V19.2502C26.1993 17.4575 27.0755 15.7118 29.8922 15.7118H32.7491V10.1355C32.7491 10.1355 30.1574 9.69238 27.6765 9.69238C22.4997 9.69238 19.1157 12.828 19.1157 18.5083V23.5004H13.3615V30.0502H19.1157V45.886C20.2706 46.0672 21.4523 46.1613 22.6575 46.1613C23.8627 46.1613 25.0444 46.0672 26.1993 45.886V30.0502H31.4801Z" fill="white"/>
</g>
</svg>
