<svg width="378" height="103" viewBox="0 0 378 103" fill="none" xmlns="http://www.w3.org/2000/svg">
<path d="M0 51.25C10.5806 51.25 97.5403 51.25 139.698 51.25" stroke="#FF067E" stroke-width="3"/>
<path d="M238.065 51.25C248.645 51.25 335.605 51.25 377.762 51.25" stroke="#FF067E" stroke-width="3"/>
<mask id="path-3-outside-1_75_347" maskUnits="userSpaceOnUse" x="168.94" y="35" width="46" height="31" fill="black">
<rect fill="white" x="168.94" y="35" width="46" height="31"/>
<path d="M180.817 60.6836L187.653 36.5625H191.559L182.731 65H179.977L180.817 60.6836ZM174.684 36.5625L181.462 60.6836L182.36 65H179.606L170.778 36.5625H174.684ZM195.446 36.5625H203.395C205.244 36.5625 206.794 36.888 208.044 37.5391C209.307 38.1901 210.257 39.1536 210.895 40.4297C211.546 41.6927 211.872 43.2487 211.872 45.0977C211.872 46.3997 211.657 47.5911 211.227 48.6719C210.798 49.7396 210.173 50.651 209.352 51.4063C208.532 52.1484 207.536 52.7018 206.364 53.0664L205.387 53.4766H198.298L198.259 50.4102H203.356C204.45 50.4102 205.361 50.1758 206.091 49.707C206.82 49.2253 207.367 48.5807 207.731 47.7734C208.096 46.9661 208.278 46.0742 208.278 45.0977C208.278 44.0039 208.115 43.0469 207.79 42.2266C207.464 41.4063 206.943 40.7747 206.227 40.332C205.524 39.8763 204.58 39.6484 203.395 39.6484H199.04V65H195.446V36.5625ZM209.098 65L203.434 52.1094L207.165 52.0898L212.946 64.7656V65H209.098Z"/>
</mask>
<path d="M180.817 60.6836L187.653 36.5625H191.559L182.731 65H179.977L180.817 60.6836ZM174.684 36.5625L181.462 60.6836L182.36 65H179.606L170.778 36.5625H174.684ZM195.446 36.5625H203.395C205.244 36.5625 206.794 36.888 208.044 37.5391C209.307 38.1901 210.257 39.1536 210.895 40.4297C211.546 41.6927 211.872 43.2487 211.872 45.0977C211.872 46.3997 211.657 47.5911 211.227 48.6719C210.798 49.7396 210.173 50.651 209.352 51.4063C208.532 52.1484 207.536 52.7018 206.364 53.0664L205.387 53.4766H198.298L198.259 50.4102H203.356C204.45 50.4102 205.361 50.1758 206.091 49.707C206.82 49.2253 207.367 48.5807 207.731 47.7734C208.096 46.9661 208.278 46.0742 208.278 45.0977C208.278 44.0039 208.115 43.0469 207.79 42.2266C207.464 41.4063 206.943 40.7747 206.227 40.332C205.524 39.8763 204.58 39.6484 203.395 39.6484H199.04V65H195.446V36.5625ZM209.098 65L203.434 52.1094L207.165 52.0898L212.946 64.7656V65H209.098Z" fill="#FF067E"/>
<path d="M180.817 60.6836L179.855 60.4109L179.844 60.4514L179.836 60.4926L180.817 60.6836ZM187.653 36.5625V35.5625H186.897L186.691 36.2898L187.653 36.5625ZM191.559 36.5625L192.514 36.859L192.917 35.5625H191.559V36.5625ZM182.731 65V66H183.468L183.686 65.2965L182.731 65ZM179.977 65L178.996 64.809L178.764 66H179.977V65ZM174.684 36.5625L175.647 36.292L175.442 35.5625H174.684V36.5625ZM181.462 60.6836L182.441 60.4798L182.434 60.4462L182.424 60.4131L181.462 60.6836ZM182.36 65V66H183.59L183.339 64.7962L182.36 65ZM179.606 65L178.651 65.2965L178.87 66H179.606V65ZM170.778 36.5625V35.5625H169.421L169.823 36.859L170.778 36.5625ZM181.779 60.9563L188.615 36.8352L186.691 36.2898L179.855 60.4109L181.779 60.9563ZM187.653 37.5625H191.559V35.5625H187.653V37.5625ZM190.604 36.266L181.776 64.7035L183.686 65.2965L192.514 36.859L190.604 36.266ZM182.731 64H179.977V66H182.731V64ZM180.959 65.191L181.799 60.8746L179.836 60.4926L178.996 64.809L180.959 65.191ZM173.722 36.833L180.499 60.9541L182.424 60.4131L175.647 36.292L173.722 36.833ZM180.483 60.8874L181.381 65.2038L183.339 64.7962L182.441 60.4798L180.483 60.8874ZM182.36 64H179.606V66H182.36V64ZM180.561 64.7035L171.733 36.266L169.823 36.859L178.651 65.2965L180.561 64.7035ZM170.778 37.5625H174.684V35.5625H170.778V37.5625ZM195.446 36.5625V35.5625H194.446V36.5625H195.446ZM208.044 37.5391L207.582 38.426L207.586 38.4279L208.044 37.5391ZM210.895 40.4297L210.001 40.8769L210.006 40.8879L210.895 40.4297ZM211.227 48.6719L212.155 49.0452L212.157 49.0413L211.227 48.6719ZM209.352 51.4063L210.023 52.1478L210.03 52.1419L209.352 51.4063ZM206.364 53.0664L206.067 52.1115L206.021 52.1258L205.977 52.1444L206.364 53.0664ZM205.387 53.4766V54.4766H205.589L205.775 54.3985L205.387 53.4766ZM198.298 53.4766L197.298 53.4893L197.31 54.4766H198.298V53.4766ZM198.259 50.4102V49.4102H197.246L197.259 50.4229L198.259 50.4102ZM206.091 49.707L206.631 50.5483L206.642 50.5414L206.091 49.707ZM206.227 40.332L205.683 41.1712L205.692 41.177L205.701 41.1826L206.227 40.332ZM199.04 39.6484V38.6484H198.04V39.6484H199.04ZM199.04 65V66H200.04V65H199.04ZM195.446 65H194.446V66H195.446V65ZM209.098 65L208.183 65.4023L208.446 66H209.098V65ZM203.434 52.1094L203.429 51.1094L201.906 51.1174L202.519 52.5117L203.434 52.1094ZM207.165 52.0898L208.075 51.6749L207.806 51.0865L207.16 51.0899L207.165 52.0898ZM212.946 64.7656H213.946V64.5483L213.856 64.3507L212.946 64.7656ZM212.946 65V66H213.946V65H212.946ZM195.446 37.5625H203.395V35.5625H195.446V37.5625ZM203.395 37.5625C205.132 37.5625 206.512 37.8687 207.582 38.426L208.506 36.6521C207.076 35.9073 205.357 35.5625 203.395 35.5625V37.5625ZM207.586 38.4279C208.659 38.9813 209.457 39.7898 210.001 40.8769L211.79 39.9825C211.057 38.5175 209.954 37.3989 208.502 36.6502L207.586 38.4279ZM210.006 40.8879C210.566 41.973 210.872 43.3617 210.872 45.0977H212.872C212.872 43.1357 212.527 41.4124 211.784 39.9715L210.006 40.8879ZM210.872 45.0977C210.872 46.2883 210.676 47.3525 210.298 48.3024L212.157 49.0413C212.638 47.8298 212.872 46.5112 212.872 45.0977H210.872ZM210.3 48.2985C209.924 49.2329 209.382 50.0193 208.675 50.6706L210.03 52.1419C210.963 51.2828 211.672 50.2462 212.155 49.0452L210.3 48.2985ZM208.681 50.6647C207.98 51.2993 207.116 51.7853 206.067 52.1115L206.661 54.0213C207.956 53.6183 209.084 52.9976 210.023 52.1478L208.681 50.6647ZM205.977 52.1444L205 52.5546L205.775 54.3985L206.751 53.9884L205.977 52.1444ZM205.387 52.4766H198.298V54.4766H205.387V52.4766ZM199.298 53.4638L199.258 50.3974L197.259 50.4229L197.298 53.4893L199.298 53.4638ZM198.259 51.4102H203.356V49.4102H198.259V51.4102ZM203.356 51.4102C204.592 51.4102 205.703 51.1447 206.631 50.5482L205.55 48.8659C205.019 49.2069 204.308 49.4102 203.356 49.4102V51.4102ZM206.642 50.5414C207.531 49.954 208.201 49.1619 208.643 48.185L206.82 47.3619C206.532 47.9995 206.109 48.4965 205.539 48.8727L206.642 50.5414ZM208.643 48.185C209.071 47.2357 209.278 46.2015 209.278 45.0977H207.278C207.278 45.9469 207.12 46.6966 206.82 47.3619L208.643 48.185ZM209.278 45.0977C209.278 43.9068 209.101 42.8198 208.719 41.8577L206.86 42.5954C207.13 43.2739 207.278 44.101 207.278 45.0977H209.278ZM208.719 41.8577C208.319 40.8479 207.661 40.0429 206.753 39.4814L205.701 41.1826C206.226 41.5066 206.61 41.9646 206.86 42.5954L208.719 41.8577ZM206.771 39.4929C205.852 38.8971 204.697 38.6484 203.395 38.6484V40.6484C204.464 40.6484 205.196 40.8555 205.683 41.1712L206.771 39.4929ZM203.395 38.6484H199.04V40.6484H203.395V38.6484ZM198.04 39.6484V65H200.04V39.6484H198.04ZM199.04 64H195.446V66H199.04V64ZM196.446 65V36.5625H194.446V65H196.446ZM210.014 64.5977L204.35 51.7071L202.519 52.5117L208.183 65.4023L210.014 64.5977ZM203.44 53.1094L207.17 53.0898L207.16 51.0899L203.429 51.1094L203.44 53.1094ZM206.255 52.5048L212.036 65.1806L213.856 64.3507L208.075 51.6749L206.255 52.5048ZM211.946 64.7656V65H213.946V64.7656H211.946ZM212.946 64H209.098V66H212.946V64Z" fill="#FF067E" mask="url(#path-3-outside-1_75_347)"/>
</svg>
