<svg width="342" height="103" viewBox="0 0 342 103" fill="none" xmlns="http://www.w3.org/2000/svg">
<path d="M202 51C212.581 51 299.54 51 341.698 51" stroke="#FF067E"/>
<path d="M0 51C10.5806 51 97.5403 51 139.698 51" stroke="#FF067E"/>
<mask id="path-3-outside-1_346_20" maskUnits="userSpaceOnUse" x="155" y="35" width="32" height="31" fill="black">
<rect fill="white" x="155" y="35" width="32" height="31"/>
<path d="M165.219 56.4063L169.77 36.5625H172.328L170.98 44.2773L166.039 65H163.48L165.219 56.4063ZM160.727 36.5625L164.281 56.0156L165.336 65H162.816L157.152 36.5625H160.727ZM178.129 55.9961L181.605 36.5625H185.18L179.535 65H177.016L178.129 55.9961ZM172.738 36.5625L177.152 56.4063L178.852 65H176.293L171.566 44.2773L170.219 36.5625H172.738Z"/>
</mask>
<path d="M165.219 56.4063L169.77 36.5625H172.328L170.98 44.2773L166.039 65H163.48L165.219 56.4063ZM160.727 36.5625L164.281 56.0156L165.336 65H162.816L157.152 36.5625H160.727ZM178.129 55.9961L181.605 36.5625H185.18L179.535 65H177.016L178.129 55.9961ZM172.738 36.5625L177.152 56.4063L178.852 65H176.293L171.566 44.2773L170.219 36.5625H172.738Z" fill="#FF067E"/>
<path d="M165.219 56.4063L164.244 56.1827L164.241 56.1953L164.239 56.208L165.219 56.4063ZM169.77 36.5625V35.5625H168.973L168.795 36.339L169.77 36.5625ZM172.328 36.5625L173.313 36.7346L173.518 35.5625H172.328V36.5625ZM170.98 44.2773L171.953 44.5093L171.96 44.4795L171.966 44.4494L170.98 44.2773ZM166.039 65V66H166.829L167.012 65.232L166.039 65ZM163.48 65L162.5 64.8017L162.258 66H163.48V65ZM160.727 36.5625L161.71 36.3827L161.56 35.5625H160.727V36.5625ZM164.281 56.0156L165.274 55.899L165.271 55.8673L165.265 55.8359L164.281 56.0156ZM165.336 65V66H166.46L166.329 64.8834L165.336 65ZM162.816 65L161.836 65.1953L161.996 66H162.816V65ZM157.152 36.5625V35.5625H155.934L156.172 36.7578L157.152 36.5625ZM178.129 55.9961L177.145 55.82L177.14 55.8466L177.136 55.8734L178.129 55.9961ZM181.605 36.5625V35.5625H180.768L180.621 36.3864L181.605 36.5625ZM185.18 36.5625L186.161 36.7572L186.398 35.5625H185.18V36.5625ZM179.535 65V66H180.356L180.516 65.1947L179.535 65ZM177.016 65L176.023 64.8773L175.884 66H177.016V65ZM172.738 36.5625L173.714 36.3454L173.54 35.5625H172.738V36.5625ZM177.152 56.4063L178.133 56.2123L178.131 56.2007L178.128 56.1891L177.152 56.4063ZM178.852 65V66H180.069L179.833 64.806L178.852 65ZM176.293 65L175.318 65.2224L175.495 66H176.293V65ZM171.566 44.2773L170.581 44.4494L170.586 44.4747L170.591 44.4997L171.566 44.2773ZM170.219 36.5625V35.5625H169.029L169.234 36.7346L170.219 36.5625ZM166.193 56.6298L170.744 36.786L168.795 36.339L164.244 56.1827L166.193 56.6298ZM169.77 37.5625H172.328V35.5625H169.77V37.5625ZM171.343 36.3904L169.995 44.1053L171.966 44.4494L173.313 36.7346L171.343 36.3904ZM170.008 44.0454L165.066 64.768L167.012 65.232L171.953 44.5093L170.008 44.0454ZM166.039 64H163.48V66H166.039V64ZM164.461 65.1983L166.199 56.6045L164.239 56.208L162.5 64.8017L164.461 65.1983ZM159.743 36.7423L163.298 56.1954L165.265 55.8359L161.71 36.3827L159.743 36.7423ZM163.288 56.1322L164.343 65.1166L166.329 64.8834L165.274 55.899L163.288 56.1322ZM165.336 64H162.816V66H165.336V64ZM163.797 64.8047L158.133 36.3672L156.172 36.7578L161.836 65.1953L163.797 64.8047ZM157.152 37.5625H160.727V35.5625H157.152V37.5625ZM179.113 56.1722L182.59 36.7386L180.621 36.3864L177.145 55.82L179.113 56.1722ZM181.605 37.5625H185.18V35.5625H181.605V37.5625ZM184.199 36.3678L178.554 64.8053L180.516 65.1947L186.161 36.7572L184.199 36.3678ZM179.535 64H177.016V66H179.535V64ZM178.008 65.1227L179.121 56.1188L177.136 55.8734L176.023 64.8773L178.008 65.1227ZM171.762 36.7796L176.176 56.6234L178.128 56.1891L173.714 36.3454L171.762 36.7796ZM176.171 56.6002L177.871 65.194L179.833 64.806L178.133 56.2123L176.171 56.6002ZM178.852 64H176.293V66H178.852V64ZM177.268 64.7776L172.541 44.055L170.591 44.4997L175.318 65.2224L177.268 64.7776ZM172.551 44.1053L171.204 36.3904L169.234 36.7346L170.581 44.4494L172.551 44.1053ZM170.219 37.5625H172.738V35.5625H170.219V37.5625Z" fill="#FF067E" mask="url(#path-3-outside-1_346_20)"/>
</svg>
