<svg width="47" height="47" viewBox="0 0 47 47" fill="none" xmlns="http://www.w3.org/2000/svg">
<g id="Group">
<path id="Vector" d="M23.5 46.1611C36.0152 46.1611 46.1608 36.0155 46.1608 23.5002C46.1608 10.985 36.0152 0.839355 23.5 0.839355C10.9847 0.839355 0.839111 10.985 0.839111 23.5002C0.839111 36.0155 10.9847 46.1611 23.5 46.1611Z" fill="#FF067E"/>
<g id="Group_2">
<path id="Vector_2" d="M23.4999 11.8006C27.3103 11.8006 27.7602 11.814 29.2642 11.8845C30.6541 11.9483 31.4094 12.1799 31.913 12.3747C32.5777 12.6332 33.0544 12.942 33.5547 13.4422C34.0549 13.9425 34.3637 14.4158 34.6222 15.0839C34.8169 15.5875 35.0486 16.3428 35.1124 17.7327C35.1795 19.2367 35.1963 19.6899 35.1963 23.4969C35.1963 27.304 35.1829 27.7572 35.1124 29.2612C35.0486 30.6511 34.8169 31.4064 34.6222 31.91C34.3637 32.5747 34.0549 33.0514 33.5547 33.5517C33.0544 34.0519 32.5811 34.3607 31.913 34.6192C31.4094 34.8139 30.6541 35.0456 29.2642 35.1094C27.7602 35.1765 27.3103 35.1933 23.4999 35.1933C19.6896 35.1933 19.2397 35.1799 17.7357 35.1094C16.3458 35.0456 15.5905 34.8139 15.0869 34.6192C14.4222 34.3607 13.9455 34.0519 13.4452 33.5517C12.945 33.0514 12.6362 32.5781 12.3777 31.91C12.1829 31.4064 11.9513 30.6511 11.8875 29.2612C11.8204 27.7572 11.8036 27.304 11.8036 23.4969C11.8036 19.6899 11.817 19.2367 11.8875 17.7327C11.9513 16.3428 12.1829 15.5875 12.3777 15.0839C12.6362 14.4192 12.945 13.9425 13.4452 13.4422C13.9455 12.942 14.4188 12.6332 15.0869 12.3747C15.5905 12.1799 16.3458 11.9483 17.7357 11.8845C19.2397 11.8174 19.6929 11.8006 23.4999 11.8006ZM23.4999 9.229C19.6258 9.229 19.139 9.24579 17.6182 9.31629C16.1007 9.38679 15.0634 9.62515 14.1536 9.98101C13.2169 10.3469 12.4213 10.8337 11.6257 11.626C10.8334 12.4183 10.3432 13.214 9.98064 14.154C9.62814 15.0604 9.38643 16.0978 9.31593 17.6186C9.24543 19.1393 9.22864 19.6261 9.22864 23.5003C9.22864 27.3745 9.24543 27.8613 9.31593 29.3821C9.38643 30.8995 9.62478 31.9369 9.98064 32.8467C10.3466 33.7833 10.8334 34.5789 11.6257 35.3746C12.4179 36.1669 13.2136 36.657 14.1536 37.0196C15.06 37.3721 16.0974 37.6138 17.6182 37.6843C19.139 37.7548 19.6258 37.7716 23.4999 37.7716C27.3741 37.7716 27.8609 37.7548 29.3817 37.6843C30.8991 37.6138 31.9365 37.3755 32.8463 37.0196C33.7829 36.6537 34.5786 36.1669 35.3742 35.3746C36.1665 34.5823 36.6567 33.7867 37.0192 32.8467C37.3717 31.9402 37.6135 30.9029 37.684 29.3821C37.7545 27.8613 37.7712 27.3745 37.7712 23.5003C37.7712 19.6261 37.7545 19.1393 37.684 17.6186C37.6135 16.1011 37.3751 15.0638 37.0192 14.154C36.6533 13.2173 36.1665 12.4217 35.3742 11.626C34.5819 10.8337 33.7863 10.3436 32.8463 9.98101C31.9399 9.6285 30.9025 9.38679 29.3817 9.31629C27.8609 9.24579 27.3741 9.229 23.4999 9.229Z" fill="white"/>
<path id="Vector_3" d="M23.5 16.1719C19.4546 16.1719 16.1746 19.4518 16.1746 23.4972C16.1746 27.5426 19.4546 30.8225 23.5 30.8225C27.5453 30.8225 30.8253 27.5426 30.8253 23.4972C30.8253 19.4518 27.5453 16.1719 23.5 16.1719ZM23.5 28.2543C20.8747 28.2543 18.7429 26.1259 18.7429 23.4972C18.7429 20.8685 20.8713 18.7401 23.5 18.7401C26.1286 18.7401 28.257 20.8685 28.257 23.4972C28.257 26.1259 26.1286 28.2543 23.5 28.2543Z" fill="white"/>
<path id="Vector_4" d="M31.1174 17.5957C32.063 17.5957 32.8295 16.8291 32.8295 15.8835C32.8295 14.9379 32.063 14.1714 31.1174 14.1714C30.1718 14.1714 29.4052 14.9379 29.4052 15.8835C29.4052 16.8291 30.1718 17.5957 31.1174 17.5957Z" fill="white"/>
</g>
</g>
</svg>
