<svg width="289" height="72" viewBox="0 0 289 72" fill="none" xmlns="http://www.w3.org/2000/svg">
<path d="M20.1106 17.325L32.4195 15.5752C33.5468 15.415 34.5803 16.2269 34.6914 17.3602L38.2562 53.7188L40.4507 28.8244C40.5418 27.7919 41.4065 27 42.443 27H48.6071C49.6706 27 50.5482 27.8323 50.6043 28.8944L51.9174 53.7188L60.5287 13.5805C60.7265 12.6585 61.5413 12 62.4842 12H72.5316C73.8031 12 74.7518 13.1709 74.4881 14.4148L62.617 70.4147C62.4211 71.3389 61.6052 72 60.6605 72H50.1058C49.2236 72 48.4456 71.422 48.1909 70.5773L45.7934 62.625L44.2319 70.3941C44.0441 71.3281 43.2237 72 42.2711 72H30.9327C29.9851 72 29.1675 71.3349 28.9746 70.4071L18.434 19.7122C18.1989 18.5816 18.9674 17.4875 20.1106 17.325Z" fill="white"/>
<path d="M91.9858 49.0179C91.6155 54.706 90.3322 60.1666 87.9802 65.3643C87.8929 65.3643 87.8056 65.3596 87.7184 65.3596C88.0816 63.2203 89.0748 61.273 89.5537 59.1574C90.5799 54.6112 90.6412 50.1029 89.6622 45.533C88.7823 41.4251 87.4353 37.5257 85.2909 33.9129C85.1116 33.612 85.0102 33.2543 84.6398 33.0813C84.2435 33.2614 84.4369 33.6262 84.4417 33.8915C84.4841 35.9834 84.1279 38.0303 83.8802 40.0961C83.7457 41.2143 83.9816 42.5054 84.8899 43.4246C85.5504 44.0927 86.1614 44.8199 86.9635 45.3459C87.2371 45.5259 87.5792 45.7368 87.4093 46.284C86.3879 45.488 85.3947 44.7181 84.4039 43.9458C84.3001 43.9671 84.1987 43.9884 84.0949 44.0097C84.5478 47.1108 83.2975 50.2498 84.4818 53.4101C83.9816 53.3035 83.4579 52.9884 82.8257 53.0192C82.1369 53.0524 81.5896 52.8652 81.7901 51.8418C81.9387 51.0837 81.7028 50.2474 81.6202 49.4467C81.599 49.2358 81.6839 48.9184 81.3537 48.8781C81.0942 48.8473 80.9173 49.0795 80.8158 49.2761C80.2897 50.2853 79.6764 51.2685 79.3155 52.3369C78.9711 53.3532 79.7377 54.2867 79.9052 55.284C80.0869 56.3643 80.4124 57.4209 80.6743 58.487C80.653 58.7428 80.7144 59.0295 80.436 59.2001C79.8463 57.3735 79.2589 55.5446 78.6054 53.5215C77.8104 54.9879 77.2206 56.4188 76.3572 57.7004C73.8826 61.3725 71.4292 65.0753 68.1266 68.0603C66.2794 69.7281 64.3757 71.4172 61.8232 72C61.7996 71.9195 61.7784 71.8389 61.7548 71.7584C61.861 71.358 61.9671 70.96 62.0756 70.5596C62.3328 70.5715 62.505 70.4175 62.6984 70.2753C65.6897 68.0792 68.1761 65.407 70.495 62.5025C73.2645 59.0318 75.2249 55.1229 77.2159 51.2116C77.3999 50.8492 77.5297 50.4156 77.2089 50.11C76.8432 49.7618 76.4893 50.0697 76.1732 50.3138C75.4938 50.8397 74.8333 51.3964 74.1209 51.875C73.6019 52.2232 72.9366 52.3393 72.5521 51.7494C72.1983 51.2045 72.4082 50.598 72.9414 50.1906C73.6844 49.6196 74.2789 48.8852 75.1423 48.4327C75.9798 47.9945 76.2841 47.3169 75.784 46.3006C73.9204 42.5291 71.9765 38.8073 69.6434 35.3035C69.792 34.8865 69.8982 34.4696 69.5609 34.0858C69.6694 33.8513 69.7779 33.6191 69.8864 33.3846C70.2379 34.0289 70.5705 34.6852 70.9503 35.313C71.3632 35.9929 71.7972 35.981 72.2549 35.313C74.3025 32.3209 75.3358 28.9876 75.4467 25.389C75.5127 23.2095 74.5361 22.0084 72.453 21.3238C72.446 21.165 72.4412 21.0063 72.4342 20.8499C72.5663 20.8215 72.6488 20.7576 72.6017 20.6059C72.6229 20.4567 72.6465 20.3074 72.6677 20.1558C73.3778 20.1061 73.7481 20.9044 74.5408 20.9021C74.2553 19.7507 74.0737 18.6207 73.182 17.7844C73.1395 17.2135 73.5901 16.6828 73.3235 16.0929C73.6585 15.4272 73.8708 14.7331 73.7953 13.975C73.8708 13.8115 73.9487 13.648 74.0242 13.4822C74.0336 13.2595 74.0454 13.0345 74.0548 12.8118C73.7717 12.409 73.3471 12.563 72.9791 12.5559C71.7713 12.537 70.5611 12.5488 69.3533 12.5488C65.3004 9.23926 61.4623 6.93181 59.6105 6.82283C61.8728 8.29875 63.1584 10.3195 64.1634 12.5535C64.1634 12.6151 64.1634 12.6791 64.1634 12.7407C63.5335 12.7478 62.9037 12.7549 62.2738 12.7597C62.3729 12.6128 62.5876 12.3735 62.5545 12.3309C61.776 11.3216 60.9928 10.3148 60.0233 9.47616C59.4335 8.96682 58.8461 9.63962 58.2587 9.47616C59.1575 9.10185 59.3274 8.76782 58.3437 8.17792C56.4729 7.055 54.456 6.36324 52.3706 5.78756C47.6572 4.48932 43.0264 4.8044 38.4428 6.3893C38.2871 6.46984 38.1314 6.55276 37.9757 6.63331C35.185 7.54539 32.7859 9.00709 30.9222 11.587C36.2513 11.6865 41.3869 11.3051 46.5508 12.1295C46.4423 11.6201 46.1663 11.6036 45.9799 11.4827C44.5692 10.5754 43.1538 9.67516 41.7408 8.77255C41.8233 8.68964 41.9059 8.60909 41.9885 8.52617C43.201 9.23215 44.4867 9.84099 45.6119 10.6678C47.4473 12.0181 49.2637 12.8236 51.5119 11.6391C52.3989 11.17 53.3968 10.8881 54.371 10.6133C55.6756 10.2461 56.8716 9.49985 58.2729 9.46668C58.1172 9.57803 57.9733 9.72965 57.8011 9.79361C55.9775 10.4783 54.1469 11.1487 52.3187 11.8191C51.8587 11.9873 51.3727 12.1105 50.9245 12.6673C51.7336 12.7999 52.406 12.916 53.0783 13.0179C55.0717 13.3188 57.0768 13.5628 58.9358 14.4227C58.9594 14.5838 58.9829 14.7449 59.0065 14.9036C58.9051 15.0695 58.8037 15.2353 58.7046 15.3988C55.8525 14.4867 52.9415 13.8376 49.9714 13.3756C52.3092 15.2329 54.6329 17.0524 56.8952 18.9476C57.2349 19.2319 57.5133 19.6939 58.0653 19.6488C58.129 19.7175 58.195 19.7886 58.2587 19.8573C57.8789 20.016 58.0323 20.3217 58.0606 20.5917C57.7728 20.9281 57.7562 21.3356 57.7515 21.7478C57.6878 21.7549 57.6312 21.7407 57.577 21.7075C57.6124 21.0963 57.5086 20.5728 56.9872 20.1369C54.5574 18.1066 52.2267 15.9579 49.7001 14.0437C48.9075 13.4443 48.1739 13.3993 47.3152 13.8091C43.2954 15.7186 39.1883 17.4527 35.3242 19.682C34.9208 19.9142 34.5221 20.189 34.0149 20.1392C33.989 19.8289 33.9654 19.5185 33.9394 19.2106C36.3716 17.8626 38.9052 16.7254 41.4506 15.6167C43.3826 14.7757 45.3194 13.9465 47.4638 13.0203C46.0908 12.5843 44.9184 12.6341 43.7672 12.5014C39.7238 12.0418 35.6733 11.8073 31.6063 11.8191C30.8916 11.8191 30.4103 12.0489 30.1154 12.7123C29.5752 13.9371 29.1223 15.1856 29.0303 16.5383C28.5514 16.6188 28.0749 16.6994 27.596 16.7823C27.2256 13.0676 28.4382 9.96418 31.2431 7.44826C27.2822 9.1516 23.8852 11.5183 21.2691 14.8965C20.5354 15.8442 19.7262 16.7705 19.3535 17.9573C19.271 17.9763 19.186 17.9929 19.1035 18.0118C18.3344 18.0118 17.3767 17.782 17.747 19.149C17.7848 19.5304 18.0655 19.7104 18.358 19.8786C18.391 19.945 18.4075 20.0137 18.4099 20.0871C17.9971 20.3738 18.0561 20.6533 18.4217 20.9281C18.325 21.0561 18.2259 21.1864 18.1292 21.3143C17.7022 21.3782 17.7541 21.7146 17.6928 22.0226C17.3106 23.9866 17.4073 25.9671 17.4569 27.95C17.4687 28.4688 17.4474 29.1298 17.8272 29.3643C18.2566 29.6273 18.5821 28.9616 18.9784 28.746C19.0775 28.6915 19.2002 28.6796 19.3111 28.6465C19.7923 29.1108 19.4337 29.8192 19.7923 30.3214C19.0987 30.8829 18.2353 31.4017 18.8086 32.4985C19.363 33.5551 19.8584 34.6591 20.7312 35.5143C20.835 35.6825 20.9412 35.8484 21.045 36.0166C21.019 36.09 20.9931 36.1658 20.9671 36.2393C19.7758 35.3461 19.1318 34.0076 18.2967 32.8349C17.8862 32.2569 17.7022 32.328 17.2611 32.7473C14.7841 35.1163 12.7695 37.8573 10.8799 40.7002C10.3915 41.4346 10.3255 42.1761 10.618 43.0455C12.057 47.2932 14.0716 51.1714 17.2375 54.4217C18.4099 55.6252 19.4903 56.9187 20.7689 58.0155C20.6864 58.0984 20.6038 58.1814 20.5236 58.2666C17.9027 56.6131 15.9282 54.2914 13.9018 51.991C11.8471 49.6623 10.7124 46.8123 9.13418 44.0192C6.82705 49.0511 6.11934 54.1327 6.81761 59.4512C5.94713 57.6199 5.6263 55.6583 5.47532 53.7086C5.14977 49.4633 6.06036 45.4335 8.03959 41.6596C8.29908 41.1669 8.2519 40.7025 8.13867 40.179C7.90513 39.1082 7.74707 38.0208 7.55835 36.9429C7.55835 35.3651 7.56071 33.7849 7.56307 32.2071C7.72348 28.9829 8.76381 25.9931 9.99523 23.0555C10.1014 22.802 10.2146 22.5533 10.3184 22.2974C10.3255 22.2785 10.276 22.2358 10.1462 22.0605C0.422267 36.1563 -1.29511 51.0861 4.78412 66.8071C2.937 64.6038 0.0589759 54.7581 0.00235909 49.2619C0.00235909 47.3643 0.00235903 45.4643 0 43.5667C0.271289 38.054 1.58527 32.7994 3.75794 27.7368C5.80794 22.9537 8.70248 18.7652 12.1467 14.8847C17.1455 9.25584 23.3002 5.39193 30.2334 2.76939C34.0314 1.33138 38.0206 0.573289 42.1017 0.17529C46.6476 -0.267722 51.1085 0.170552 55.5128 1.02341C59.9808 1.88811 64.2224 3.51564 68.2304 5.77571C72.6488 8.26795 76.5719 11.3524 79.9831 15.079C82.9555 18.3293 85.4018 21.9658 87.3645 25.9268C89.0842 29.3998 90.2142 33.0742 91.1012 36.8268C91.4598 38.343 91.6131 39.9208 91.7334 41.4796C91.8301 42.7281 91.7429 43.9931 92 45.2322C92 46.4949 92 47.7599 92 49.0226L91.9858 49.0179ZM83.248 35.1708C83.2645 33.3253 83.4296 31.558 82.6016 30.1248C81.4575 28.1395 79.5726 26.737 77.9189 25.1711C77.5368 24.811 77.1169 24.8039 77.1239 25.543C77.1404 26.9905 76.6144 28.3219 76.1449 29.6486C75.3877 31.7855 74.253 33.7044 72.696 35.3651C72.1039 35.9976 71.8255 36.6017 72.3728 37.528C74.0336 40.3401 75.5198 43.2493 76.8715 46.2272C77.1735 46.8905 77.348 46.4096 77.5981 46.1774C79.2636 44.6304 80.5893 42.7968 82.0189 41.0413C82.5898 40.3401 82.9059 39.6412 82.9767 38.8571C83.0946 37.5683 83.4202 36.2866 83.248 35.1685V35.1708ZM17.7848 14.6288C11.6182 21.2693 8.62699 29.0018 9.6862 38.189C9.85841 38.1511 9.95513 38.1582 9.99759 38.1156C10.1321 37.9758 10.2524 37.8194 10.368 37.6631C12.1561 35.2703 13.9513 32.8776 16.3505 31.0487C17.0039 30.5512 16.8954 30.0371 16.6406 29.4046C15.3951 26.3201 15.3243 23.1432 15.8975 19.9047C16.2302 18.0308 17.1054 16.3701 17.7848 14.6336V14.6288ZM81.4999 21.961C82.2572 24.0434 83.2079 26.0595 83.7009 28.2319C84.0406 29.7268 84.5242 31.0961 85.3758 32.4393C87.1427 35.2206 88.4119 38.2719 89.214 41.4962C89.4711 42.5243 89.7683 43.543 89.9854 44.5807C90.1883 45.5543 90.1364 46.5778 90.535 47.5088C90.252 38.0303 87.2418 29.5112 81.4999 21.9634V21.961ZM82.0779 27.9026C82.1723 27.8244 82.2666 27.7439 82.3633 27.6657C81.0635 22.9158 78.7351 18.7344 75.3688 15.1216C75.4443 15.5978 75.6 16.0337 75.7698 16.4648C76.3832 18.0308 77.2466 19.5351 77.1263 21.3001C77.0343 22.6196 77.5934 23.5767 78.6361 24.2945C79.391 24.8134 79.9854 25.4743 80.5398 26.1993C81.0045 26.8057 81.5636 27.3388 82.0803 27.905L82.0779 27.9026Z" fill="white"/>
<g clip-path="url(#clip0_328_16)">
<path d="M129.335 31.9488C128.51 35.2483 128.829 38.7597 127.363 41.9472C127.159 42.3912 127.257 43.0111 127.342 43.527C127.522 44.5868 127.151 45.2707 126.105 45.5986C123.786 45.6026 121.472 45.6106 119.153 45.6146C117.017 45.9066 116.536 44.9947 116.634 42.9711C116.744 40.6434 116.34 38.2878 115.968 35.9522C115.784 34.8044 115.405 33.4286 116.483 32.3688C116.683 32.1688 116.866 31.7969 116.593 31.7249C114.466 31.153 115.695 29.4532 115.588 28.4054C115.29 25.4819 114.833 22.5903 114.164 19.7468C113.743 17.9831 113.829 16.1314 113.086 14.4236C112.804 13.7757 113.241 13.5278 113.943 13.5398C116.05 13.5758 118.156 13.5678 120.259 13.5398C121.071 13.5278 121.553 13.8117 121.619 14.6436C122.023 19.6308 122.651 24.602 122.464 29.6252C122.431 30.5051 121.766 30.985 121.447 31.8009C122.313 31.8808 123.113 32.4647 123.215 31.137C123.635 25.5938 124.901 20.1267 124.852 14.5436C124.84 13.2958 125.162 12.8599 126.473 13.2838C128.106 13.8117 129.821 13.4958 131.503 13.5358C132.356 13.5558 132.977 13.7157 133.062 14.6676C133.328 17.5951 133.613 20.5227 133.842 23.4582C133.924 24.53 133.813 25.6498 135.438 25.5659C135.336 25.7218 135.116 25.9178 135.153 26.0338C135.63 27.4815 135.308 28.5094 133.752 29.0973C133.401 29.2293 133.27 29.7212 133.916 29.9212C134.957 30.2451 137.071 28.8813 137.28 27.7895C139.292 28.8293 140.836 27.0936 142.669 26.9696C141.297 27.0936 140.04 26.5097 139.141 25.8498C138.059 25.0539 137.002 25.2659 135.916 25.1059C135.9 24.442 135.879 23.7741 135.875 23.1102C135.871 22.5183 135.765 21.8504 136.741 21.9384C137.631 22.0184 137.431 21.4025 137.104 21.1426C135.647 19.9787 136.475 18.523 136.492 17.1792C136.496 16.7993 136.724 16.4233 136.753 16.0394C136.945 13.4078 137.21 13.0359 139.986 13.1958C141.758 13.2958 143.412 12.5119 145.404 12.8079C143.465 14.7756 144.265 17.1832 144.024 19.3708C143.608 19.2909 143.175 19.0709 142.844 19.1709C142.252 19.3468 141.758 18.219 141.273 19.0309C140.974 19.5348 141.628 19.9428 141.803 20.3947C142.603 22.4783 140.452 20.9906 140.035 21.9744C140.86 22.5703 141.195 24.2141 143.044 23.2462C143.82 22.8383 144.183 23.3182 144.057 24.0861C143.146 29.6612 144.151 35.3163 143.293 40.8954C143.102 42.1352 143.236 43.419 143.22 44.6868C140.832 44.5068 138.349 45.3747 136.059 43.9589C135.647 43.7029 135.471 44.2989 135.43 44.6988C132.38 44.7828 132.405 44.7788 131.572 41.9152C131.397 41.3113 131.613 40.6194 130.923 39.9315C133.254 40.3515 133.948 38.1238 136.083 37.7199C134.352 37.284 133.099 37.5319 131.976 38.0758C130.817 38.6398 130.735 38.2598 130.543 37.208C130.225 35.4523 130.523 33.6206 129.812 31.9288C129.506 31.097 130.241 30.829 130.739 30.3971C129.678 30.621 128.147 29.6412 127.771 31.2089C127.473 32.4647 128.788 31.7129 129.339 31.9488H129.335ZM131.972 35.2483C133.462 36.0042 134.92 36.3641 136.361 35.1843C136.602 34.9883 137.231 35.1563 137.067 34.5724C136.957 34.1925 136.504 34.3324 136.19 34.3324C134.728 34.3324 133.511 35.4163 131.972 35.2443V35.2483ZM119.998 25.5099C119.855 25.2859 119.651 24.9579 119.442 24.63C118.532 25.2299 117.454 25.0499 116.462 25.2539C116.393 25.2699 116.295 25.4899 116.327 25.5699C116.385 25.7218 116.519 25.9418 116.642 25.9538C117.593 26.0498 118.622 25.1259 119.524 26.2697C119.704 26.4977 119.998 25.9978 119.998 25.5099Z" fill="white"/>
<path d="M213.438 44.8028C212.372 44.3548 210.939 45.4706 210.119 44.1389C209.388 42.9511 208.931 41.6593 209.351 40.2275C211.164 40.0795 211.556 37.8799 213.373 37.7159C211.776 37.4439 210.319 37.5879 208.951 38.2958C207.42 37.128 208.351 35.3243 207.787 33.8925C207.559 33.3126 207.698 32.5967 207.669 31.9408C207.685 31.3569 207.747 30.793 208.592 30.3771C207.22 30.3331 205.897 30.0211 205.448 31.1369C205.13 31.9208 206.216 31.9248 206.865 31.9488C206.428 34.9883 206.081 38.0438 205.497 41.0554C205.293 42.1152 205.289 43.143 205.321 44.1669C205.358 45.2067 204.738 45.1467 204.072 45.1907C202.059 45.6906 199.998 45.4387 197.96 45.5986C197.499 45.5746 197.021 45.4706 196.576 45.5426C195.017 45.7946 194.396 45.2627 194.666 43.6789C194.764 43.103 195.013 42.3631 194.294 41.8952C194.217 39.4756 193.988 37.072 193.474 34.6964C193.392 34.3124 193.298 33.8125 193.474 33.5166C194.07 32.5007 194.519 31.6449 193.147 30.797C193.029 30.725 193.127 29.2212 193.11 28.3854C193.029 24.1781 191.873 20.1667 191.048 16.0953C190.616 13.9637 190.865 13.5518 193.045 13.5478C194.131 13.5478 195.258 13.7197 196.299 13.5118C198.667 13.0358 199.508 14.1437 199.557 16.2113C199.606 18.367 199.761 20.4706 200.226 22.6183C200.508 23.9181 199.994 25.5658 199.969 27.0736C199.961 27.6775 199.969 28.2614 200.426 28.7333C200.206 29.4692 200.786 30.4331 199.675 30.945C199.373 31.0849 199.43 31.7009 199.916 31.8648C200.316 32.0008 200.655 31.9248 200.786 31.3809C200.998 30.505 201.443 29.6732 201.149 28.7333C201.704 25.0779 201.586 21.3385 202.704 17.7471C202.974 16.8912 202.815 15.9034 202.827 14.9755C202.843 13.1158 203.729 12.3479 205.346 13.2678C206.595 13.9797 207.771 14.0197 209 13.9117C210.613 13.7717 211.009 14.6196 211.009 15.8754C211.009 18.251 211.543 20.5826 211.466 22.9742C211.429 24.1021 211.384 25.7258 213.422 25.5938C213.185 25.7818 212.715 26.0938 212.74 26.1417C213.744 27.9335 212.221 28.5774 210.947 29.3932C214.74 30.3891 216.916 26.6337 220.354 27.1136C219.023 26.8576 217.733 26.6937 216.806 25.8898C215.9 25.1059 214.932 25.1419 213.907 25.1219C212.94 22.9463 213.201 22.1264 215.238 21.6225C213.47 20.4667 213.56 18.9949 214.238 17.3831C214.381 17.0392 214.279 16.5953 214.275 16.1993C214.242 13.2998 214.34 13.0998 217.39 13.1878C219.203 13.2398 220.958 12.8399 223.514 12.6159C220.48 14.7596 222.583 17.1792 221.905 19.3268C221.403 19.4388 221.023 18.9909 220.55 18.8789C219.974 18.7429 219.243 18.487 218.843 19.0149C218.415 19.5828 219.194 19.8268 219.448 20.2307C219.978 21.0706 219.513 21.4345 217.606 21.7344C218.676 23.4382 219.231 23.6301 221.901 23.1942C221.032 30.3531 221.55 37.5599 220.791 44.7108C218.341 44.7428 215.887 44.7748 213.438 44.8068V44.8028ZM214.671 34.5844C212.907 34.9083 210.988 34.5124 209.037 35.7242C211.348 36.1761 213.152 36.0282 214.671 34.5844ZM197.952 25.8058C197.654 25.3179 197.23 24.642 196.662 24.8499C195.927 25.1179 195.245 25.1219 194.519 25.1139C194.172 25.1139 193.792 25.2099 193.89 25.6498C193.984 26.0698 194.404 26.0178 194.719 25.9378C195.576 25.7218 196.417 25.2019 197.156 26.2497C197.315 26.4777 197.952 26.4897 197.956 25.8058H197.952Z" fill="white"/>
<path d="M188.489 45.0907C188.366 45.2147 188.24 45.3427 188.117 45.4666C185.676 45.5106 183.234 45.5586 180.789 45.6026C179.899 42.6551 179.445 39.5956 178.388 36.684C178.139 36.0002 177.853 35.3643 177.494 34.7444C177.412 34.0205 177.31 33.3086 176.371 32.3127V38.7437C176.339 40.9834 176.306 43.219 176.269 45.4586C173.828 45.5026 171.39 45.5466 168.949 45.5906C168.214 45.2027 168.488 44.4908 168.573 43.9949C169.365 39.5356 168.455 35.0923 168.541 30.641C168.553 29.9891 168.52 29.3372 168.908 28.7613C168.908 26.7456 168.908 24.73 168.912 22.7143C168.063 21.2665 168.831 19.8427 168.839 18.287C169.786 18.8509 168.977 19.7867 169.602 20.3267C171.235 19.8387 172.676 19.0869 173.272 17.2871C172.999 17.1432 172.615 16.9352 172.227 16.7392C171.186 16.2113 170.937 15.6874 172.121 14.9915C172.623 14.6956 172.962 14.1836 173.542 13.9197C175.273 13.1238 176.036 13.3758 176.702 15.1515C177.939 18.459 179.152 21.7704 180.446 25.2699C180.981 24.566 180.772 23.8941 180.776 23.2942C180.801 20.3707 180.834 17.4471 180.764 14.5276C180.74 13.4798 181.074 13.1398 182.132 13.1398C184.116 13.1438 186.145 13.4278 188.146 12.3279C188.056 20.4826 188.244 28.3974 188.93 36.2921C188.313 36.892 188.55 37.6559 188.533 38.3558C188.493 40.5954 188.493 42.8391 188.476 45.0827L188.489 45.0907ZM182.577 29.7652C183.549 30.413 184.586 30.553 185.59 30.1571C185.843 30.0571 185.688 29.4372 185.378 29.1133C184.112 27.7775 183.704 30.2331 182.573 29.7652H182.577Z" fill="white"/>
<path d="M247.002 19.5228C248.606 14.9916 251.199 13.1998 256.163 13.1558C258.102 13.1398 259.984 13.2198 261.883 13.8557C264.1 14.6036 266.533 17.2432 266.509 19.4868C266.472 23.0463 267.227 26.6057 267.141 30.0851C267.043 33.9005 267.766 38.0679 265.602 41.5833C263.932 44.2909 261.193 45.9866 257.947 46.2626C256.032 46.4265 254.073 46.5825 252.06 45.6466C247.79 43.663 247.487 39.8676 246.961 36.1402C246.748 34.6404 246.965 33.0847 246.989 31.5529C247.565 30.933 247.316 30.1811 247.324 29.4772C247.349 26.9816 247.369 24.482 247.34 21.9864C247.332 21.1586 248.218 20.1907 247.002 19.5228ZM255.922 30.3291C255.947 32.7367 255.971 35.1443 256 37.5479C255.612 38.3158 256.396 38.8957 256.339 39.6116C256.294 40.2075 256.175 40.8234 257.18 40.7474C258.041 40.6834 258.164 40.1995 258.396 39.4916C259.16 37.204 258.217 34.9844 258.294 32.7367C258.262 29.9212 258.784 27.0816 257.964 24.2941C257.964 22.9703 257.972 21.6465 257.968 20.3187C257.968 19.5508 257.874 18.8029 256.853 18.7629C255.779 18.723 255.551 19.4988 255.506 20.3147C255.461 21.1066 255.518 21.9024 255.53 22.6983C255.71 25.2499 255.028 27.8375 255.841 30.3651L255.918 30.3251L255.922 30.3291Z" fill="white"/>
<path d="M224.849 19.4988C224.971 16.2953 228.401 13.4557 232.255 13.1958C234.623 13.0358 237.011 12.9958 239.375 13.8437C242.159 14.8395 244.074 17.0632 244.054 19.8907C244.029 23.2462 244.703 26.6016 244.678 29.8891C244.654 33.3526 245.03 36.996 243.784 40.3954C242.702 43.347 238.236 46.1745 235.035 46.3705C230.977 46.6224 227.576 45.6666 225.857 41.7872C224.775 39.3436 224.179 36.696 224.551 33.9565C224.657 33.8005 224.853 33.6405 224.853 33.4845C224.861 28.8213 224.853 24.158 224.845 19.4948L224.849 19.4988ZM233.39 19.5308C232.741 20.2027 232.99 21.0345 233.047 21.7824C233.284 24.7699 232.602 27.7895 233.406 30.753C233.692 33.7045 232.998 36.708 233.896 39.6316C234.035 40.0795 233.627 40.7274 234.562 40.7394C235.256 40.7474 235.684 40.5514 235.954 39.8715C236.207 39.2396 236.272 38.6157 236.338 37.9518C236.501 36.2201 235.741 34.5964 235.88 32.8526C236.219 28.6173 235.57 24.394 235.537 20.1587C235.533 19.5828 235.407 19.0588 234.864 18.8349C234.182 18.5549 233.696 18.9229 233.39 19.5268V19.5308Z" fill="white"/>
<path d="M288.608 32.7647C288.592 34.8963 288.563 37.024 288.567 39.1556C288.575 43.035 287.779 44.1828 283.982 44.9267C282.341 45.2507 280.602 45.1187 278.908 45.1107C278.148 45.1067 277.838 44.4508 277.499 43.9629C277.916 43.179 278.761 43.8589 279.161 43.239C279.091 43.103 279.014 42.8031 278.92 42.7951C278.222 42.7471 277.528 42.5791 277.185 41.9832C276.789 41.2993 276.491 41.7272 276.058 41.8632C275.674 41.9832 275.339 42.1952 275.544 42.4911C276.895 44.4508 274.486 44.4668 273.898 44.9787C272.939 45.8146 271.285 45.7946 269.893 45.3907C269.481 45.2707 269.354 44.8307 269.379 44.3948C269.534 41.7712 269.081 39.1317 269.738 36.5041C269.958 35.6242 270.093 35.2483 270.955 35.7322C271.808 36.2121 272.081 35.6562 272.208 35.0563C272.404 34.1524 271.653 34.3004 271.171 34.3644C269.909 34.5404 269.754 33.9125 269.771 32.8767C269.82 28.8853 269.673 24.8899 269.844 20.9066C269.922 19.1468 270.175 17.3871 270.232 15.6114C270.269 14.5676 270.648 13.7477 272.061 13.4678C274.176 13.0478 276.401 13.0398 278.397 12.112C278.691 11.976 278.981 11.94 279.116 12.136C280.255 13.7997 282.039 13.3478 283.66 13.5997C287.706 14.2276 288.363 16.1513 288.563 19.6108C288.694 21.8424 288.261 24.0981 288.922 26.3017C288.257 28.4294 288.62 30.605 288.612 32.7647H288.608ZM279.602 38.7677C281.165 38.4078 280.394 37.2719 280.394 36.4161C280.386 32.6527 280.349 28.8853 280.324 25.1219C279.945 24.194 279.851 23.2942 280.21 22.2943C280.447 21.6385 280.435 20.8586 280.365 20.1467C280.292 19.3548 280.03 18.7029 278.916 18.6949C277.618 18.6869 277.96 19.5188 277.956 20.1667C277.94 24.422 277.911 28.6733 277.965 32.9286C277.985 34.4484 277.234 35.8802 277.548 37.4119C277.773 38.5158 277.891 39.7995 279.598 38.7637L279.602 38.7677ZM286.073 25.4738C285.811 25.1219 285.575 24.434 285.056 24.8339C284.264 25.4498 283.076 25.0979 282.468 25.9778C282.382 26.1017 282.411 26.4737 282.509 26.5297C283.497 27.0896 284.362 26.0257 285.383 26.2937C285.758 26.3937 286.032 25.9178 286.073 25.4738Z" fill="white"/>
<path d="M153.063 36.6921C152.941 35.2003 153.361 33.2846 152.573 32.3048C151.255 30.665 151.871 28.7853 151.067 27.1336C150.201 25.3619 150.25 23.1102 149.217 21.4865C148.074 19.6828 148.458 17.4991 147.103 15.8074C146.515 15.0755 146.76 13.8637 148.217 13.9677C150.279 14.1197 152.157 13.5838 154.031 12.8479C154.594 12.6279 155.386 12.144 154.79 13.6518C154.178 15.1955 155.166 16.9752 155.68 18.551C156.093 19.8028 155.95 21.3545 157.583 22.8183C157.117 19.6228 158.55 17.1592 158.338 14.4756C158.261 13.5078 158.473 13.0599 159.632 13.1158C161.866 13.2198 164.111 13.1478 166.218 13.1478C165.254 20.3187 162.49 26.9736 160.865 33.9205C161.008 36.3041 161.147 38.6878 161.29 41.0714C161.265 41.6553 161.159 42.2512 161.237 42.8231C161.478 44.6308 160.878 45.5387 158.885 45.1507C158.697 45.1147 158.489 45.1707 158.289 45.1867C157.558 43.9629 156.562 43.9429 155.635 44.8308C154.982 45.4587 154.321 45.6226 153.496 45.5147C153.48 44.2749 153.541 43.0311 153.431 41.7993C153.276 40.0995 153.929 38.3398 153.063 36.6921Z" fill="white"/>
<path d="M177.11 61.0881C177.057 61.3441 177.314 61.836 176.657 61.912C175.971 61.992 175.959 61.5961 175.869 61.0801C175.649 59.7963 175.661 58.3526 173.505 58.6645C172.415 58.8205 171.893 59.1884 171.844 60.1603C171.819 60.6602 171.529 61.0201 171.431 61.4561C171.292 62.056 170.86 61.972 170.5 61.888C170.068 61.788 170.104 61.3441 170.211 61.0601C171.386 57.9646 171.962 54.7172 172.807 51.5377C172.938 51.0497 173.264 50.6218 173.975 50.7098C174.473 50.7738 174.603 50.9458 174.714 51.4217C175.473 54.6252 176.29 57.8127 177.106 61.0881H177.11ZM172.297 56.9368C175.126 57.2248 175.24 56.9008 173.918 53.4814C172.574 54.2892 173.501 55.885 172.297 56.9368Z" fill="white"/>
<path d="M224.82 52.3536L224.241 52.2576C224.98 51.9776 224.604 50.7018 225.731 50.7098C226.335 50.7138 226.523 50.9858 226.682 51.4657C227.303 53.3534 227.944 55.2371 228.593 57.1168C228.65 57.2808 228.797 57.4167 228.899 57.5647C229.074 58.1766 229.246 58.7885 229.422 59.3964C230.54 60.1123 230.169 59.0485 230.173 58.7165C230.214 56.077 230.197 53.4374 230.197 50.7978C230.324 50.7138 230.454 50.7178 230.577 50.8018C230.577 54.4852 230.577 58.1686 230.577 61.852C229.63 62.028 229.201 61.76 228.899 60.7282C228.172 58.2446 227.192 55.833 226.11 52.8335C226.11 55.809 226.139 58.1806 226.086 60.5482C226.074 61.0442 226.604 62.04 225.294 61.852C225.294 59.5484 225.335 57.2408 225.261 54.9411C225.233 54.0773 225.698 53.0854 224.812 52.3496L224.82 52.3536Z" fill="white"/>
<path d="M202.892 50.7658C203.137 50.7658 203.378 50.7658 203.623 50.7658C203.623 54.4692 203.619 58.1686 203.615 61.872C202.594 62.16 202.133 61.772 201.806 60.7722C201.006 58.3526 200.447 55.841 199.181 53.5814C198.895 52.5015 198.757 52.9895 198.752 53.6334C198.732 56.3769 198.74 59.1165 198.74 61.86L198.548 61.92L198.356 61.86C198.356 58.1686 198.356 54.4812 198.356 50.7898C199.148 50.5858 199.442 50.8298 199.704 51.6697C200.394 53.9013 201.296 56.069 202.113 58.2606C202.059 58.6845 202.198 59.0085 202.892 59.3204V50.7658Z" fill="white"/>
<path d="M149.356 61.852C149.099 61.872 148.842 61.892 148.581 61.912C148.568 60.8482 148.552 59.7844 148.548 58.7245C148.54 56.073 147.686 55.601 144.939 56.7369C144.918 58.1286 144.894 59.5204 144.878 60.9122C144.869 61.4321 144.996 62.044 144.106 61.896C144.106 58.1846 144.106 54.4732 144.106 50.7578C145.661 51.0298 144.792 52.2056 144.833 52.9175C144.955 55.0411 145.931 55.749 148.033 55.1411C148.76 54.9291 148.523 54.4652 148.536 54.0653C148.568 53.2094 148.564 52.3536 148.54 51.5017C148.523 50.9218 148.707 50.6218 149.348 50.8098C149.348 54.4932 149.348 58.1766 149.348 61.856L149.356 61.852Z" fill="white"/>
<path d="M117.548 56.4369C117.328 57.3848 117.838 58.3046 118.042 59.2405C118.385 60.8282 119.798 61.2002 121.488 60.2723C121.933 60.0283 122.39 59.6924 122.725 60.1003C123.137 60.6083 122.464 60.9282 122.17 61.1922C120.659 62.5639 118.246 62.144 117.328 60.3563C115.85 57.4848 115.952 54.6052 117.524 51.8097C118.385 50.2779 121.349 50.2419 122.378 51.6857C122.557 51.9376 122.88 52.1536 122.492 52.4895C122.259 52.6895 121.994 52.7655 121.765 52.5815C121.002 51.9656 120.308 51.0018 119.169 51.7497C117.883 52.5935 118.022 54.1373 117.56 55.3811C117.45 55.673 117.544 56.041 117.544 56.4369H117.548Z" fill="white"/>
<path d="M252.685 50.7538H258.257C257.171 52.0176 256.024 51.5097 255.089 51.4857C253.407 51.4377 253.448 52.3935 253.436 53.5493C253.424 54.7331 253.448 55.713 255.11 55.549C255.779 55.481 256.526 55.377 257.306 55.809C256.681 56.6168 255.922 56.4169 255.359 56.3209C253.391 55.9929 253.338 57.0728 253.432 58.4925C253.526 59.8603 253.044 61.4761 255.473 61.1561C256.261 61.0521 257.163 60.9122 258.445 61.612C256.2 62.132 254.424 61.848 252.676 61.9C252.676 58.1846 252.676 54.4692 252.676 50.7578L252.685 50.7538Z" fill="white"/>
<path d="M281.247 61.0641C282.578 61.2841 283.986 60.8682 285.285 61.5241C283.554 62.124 281.778 61.864 280.026 61.876C280.026 58.1726 280.026 54.4652 280.026 50.7618C280.271 50.7618 280.516 50.7618 280.757 50.7618C280.773 53.6853 280.773 56.6088 280.831 59.5284C280.839 60.0443 280.447 60.7282 281.251 61.0601L281.247 61.0641Z" fill="white"/>
<path d="M224.849 19.4988C224.857 24.162 224.865 28.8253 224.857 33.4885C224.857 33.6445 224.661 33.8045 224.555 33.9605C224.543 29.3612 224.526 24.7579 224.531 20.1587C224.531 19.9387 224.739 19.7187 224.849 19.4988Z" fill="white"/>
<path d="M247.002 19.5228C248.222 20.1947 247.332 21.1625 247.34 21.9864C247.369 24.482 247.349 26.9776 247.324 29.4772C247.316 30.1811 247.561 30.9329 246.989 31.5528C246.993 27.5455 246.997 23.5341 247.002 19.5268V19.5228Z" fill="white"/>
<path d="M149.356 61.852C149.356 58.1686 149.356 54.4852 149.356 50.8058C149.471 50.7458 149.589 50.7298 149.715 50.7578C149.715 54.4732 149.72 58.1846 149.724 61.9L149.536 61.912L149.356 61.852Z" fill="white"/>
<path d="M230.581 61.856C230.581 58.1726 230.581 54.4892 230.581 50.8058C231.304 50.9698 231.002 51.5497 231.006 51.9416C231.03 54.8691 231.03 57.8007 230.997 60.7282C230.993 61.1121 231.332 61.7 230.585 61.856H230.581Z" fill="white"/>
<path d="M252.685 50.7538C252.685 54.4692 252.685 58.1846 252.685 61.896C252.003 61.5961 252.248 60.9922 252.244 60.5043C252.223 57.7167 252.219 54.9251 252.244 52.1376C252.248 51.6537 251.991 51.0458 252.685 50.7498V50.7538Z" fill="white"/>
<path d="M197.993 61.896C197.993 58.1806 197.993 54.4692 197.993 50.7538C198.12 50.7138 198.242 50.7298 198.361 50.7938C198.361 54.4852 198.361 58.1726 198.361 61.864L198.181 61.92L197.993 61.896Z" fill="white"/>
<path d="M280.022 50.7618C280.022 54.4652 280.022 58.1726 280.022 61.876C279.332 61.704 279.593 61.1441 279.593 60.7482C279.569 57.7967 279.565 54.8451 279.589 51.8936C279.589 51.4977 279.332 50.9338 280.022 50.7618Z" fill="white"/>
<path d="M203.619 61.868C203.619 58.1646 203.623 54.4652 203.627 50.7618C204.207 50.8698 204.068 51.3417 204.068 51.6936C204.084 54.7731 204.084 57.8566 204.08 60.9362C204.08 61.3041 204.178 61.752 203.619 61.868Z" fill="white"/>
<path d="M281.247 61.0642C280.443 60.7322 280.839 60.0483 280.826 59.5324C280.769 56.6089 280.773 53.6893 280.753 50.7658C281.565 51.1897 281.19 51.9376 281.198 52.5335C281.247 55.3771 281.235 58.2206 281.243 61.0642H281.247Z" fill="white"/>
<path d="M135.43 44.6948C135.471 44.2949 135.647 43.699 136.059 43.9549C138.345 45.3707 140.832 44.4988 143.22 44.6828C140.627 45.5267 138.031 45.2867 135.434 44.6988L135.43 44.6948Z" fill="white"/>
<path d="M229.417 59.3964C230.267 57.4208 229.573 55.3571 229.773 53.3454C229.858 52.4895 229.818 51.6177 229.834 50.7538C229.96 50.7218 230.083 50.7378 230.197 50.7978C230.197 53.4374 230.21 56.077 230.173 58.7165C230.169 59.0485 230.536 60.1123 229.422 59.3964H229.417Z" fill="white"/>
<path d="M224.82 52.3535C225.706 53.0894 225.241 54.0812 225.269 54.9451C225.343 57.2487 225.298 59.5524 225.302 61.856C224.363 61.1441 224.959 60.1643 224.918 59.3324C224.8 57.0088 224.841 54.6811 224.82 52.3535Z" fill="white"/>
<path d="M198.74 61.856C198.74 59.1125 198.732 56.3729 198.753 53.6293C198.757 52.9854 198.895 52.4975 199.181 53.5773C199.181 55.897 199.206 58.2206 199.161 60.5402C199.153 60.9762 199.557 61.6321 198.74 61.86V61.856Z" fill="white"/>
<path d="M161.29 41.0714C161.392 41.0913 161.49 41.1233 161.584 41.1713C161.596 41.8272 161.637 42.4871 161.621 43.143C161.559 45.9346 161.212 46.1425 158.289 45.1867C158.489 45.1707 158.697 45.1147 158.885 45.1507C160.877 45.5386 161.482 44.6268 161.237 42.8231C161.159 42.2512 161.265 41.6553 161.29 41.0714Z" fill="white"/>
<path d="M119.153 45.6146C121.472 45.6106 123.786 45.6026 126.105 45.5986C123.791 46.1106 121.472 46.1865 119.153 45.6146Z" fill="white"/>
<path d="M288.608 32.7647C288.62 30.605 288.257 28.4294 288.918 26.3017C288.963 28.4614 289.192 30.633 288.608 32.7647Z" fill="white"/>
<path d="M168.92 22.7183C168.92 24.7339 168.92 26.7496 168.916 28.7653C168.312 26.7496 168.3 24.7339 168.92 22.7183Z" fill="white"/>
<path d="M119.998 25.5058C119.998 25.9938 119.704 26.4937 119.524 26.2657C118.618 25.1219 117.589 26.0458 116.642 25.9498C116.519 25.9378 116.385 25.7178 116.327 25.5658C116.295 25.4858 116.393 25.2619 116.462 25.2499C117.458 25.0459 118.532 25.2299 119.442 24.626C119.647 24.9539 119.855 25.2779 119.998 25.5058Z" fill="white"/>
<path d="M258.298 32.7407C257.559 29.9491 258.106 27.1096 257.968 24.298C258.784 27.0856 258.262 29.9251 258.298 32.7407Z" fill="white"/>
<path d="M255.534 22.7023C256.482 24.418 255.64 26.2617 255.914 28.0334C256.032 28.7933 255.877 29.5892 255.849 30.373C255.032 27.8454 255.714 25.2579 255.538 22.7063L255.534 22.7023Z" fill="white"/>
<path d="M233.39 19.5268C233.394 23.2662 233.402 27.0096 233.406 30.749C232.602 27.7895 233.284 24.766 233.047 21.7784C232.99 21.0306 232.741 20.1947 233.39 19.5268Z" fill="white"/>
<path d="M279.602 38.7677C280.418 34.9283 279.814 31.0409 280.002 27.1816C280.034 26.4897 279.679 25.7258 280.324 25.1219C280.349 28.8853 280.386 32.6527 280.394 36.4161C280.394 37.2679 281.165 38.4078 279.602 38.7677Z" fill="white"/>
<path d="M286.073 25.4739C286.032 25.9178 285.758 26.3897 285.383 26.2937C284.362 26.0258 283.497 27.0856 282.509 26.5297C282.411 26.4737 282.382 26.1058 282.468 25.9778C283.08 25.1019 284.264 25.4499 285.056 24.834C285.575 24.434 285.807 25.1219 286.073 25.4739Z" fill="white"/>
</g>
<defs>
<clipPath id="clip0_328_16">
<rect width="176" height="50" fill="white" transform="translate(113 12)"/>
</clipPath>
</defs>
</svg>
