<svg xmlns="http://www.w3.org/2000/svg" width="172" height="96" viewBox="0 0 172 96" fill="none">
  <path d="M111.232 44.2128C127.541 51.1395 139.939 51.6004 148.675 44.4762C155.096 39.2394 160.352 28.1733 156.397 12.011C155.991 10.3561 155.083 11.8003 155.354 13.5254C158.309 32.3347 147.889 46.9431 130.357 46.0301C118.37 45.4068 107.796 39.3843 96.1362 37.1851C89.5879 35.9517 77.5043 35.7322 71.1656 38.0543C70.4846 38.3045 69.9651 38.6644 70.5151 39.1121C71.6502 40.0296 85.1701 33.1423 111.232 44.2084V44.2128Z" fill="url(#paint0_linear_116_3470)"/>
  <path d="M35.8867 3.57393L36.0581 3.4961C36.4506 3.3182 37.0643 3.34599 37.8992 3.57393C38.6843 3.85746 39.1764 4.21327 39.3644 4.63023C39.4694 4.86373 39.5358 5.95338 39.569 7.88252C39.569 10.123 39.4031 12.7193 39.0603 15.6713C38.8226 17.7784 38.4189 20.2468 37.8439 23.071C37.4956 24.8055 36.9869 26.7569 36.3235 28.9195C35.7208 30.6096 35.3338 31.6048 35.1624 31.8939C34.7311 32.8223 34.3386 33.5839 33.9847 34.1621C33.0171 35.6409 32.1104 36.5749 31.27 36.9585L31.176 37.003C30.0813 37.4978 29.0031 37.1476 27.9526 35.9412C27.6817 35.5687 27.4661 35.2073 27.3112 34.8571L27.2062 34.6236C26.5261 33.1114 26.0506 30.3872 25.7687 26.4511C25.2655 20.547 24.9946 17.556 24.967 17.4893C24.7403 15.4656 24.4251 14.0146 24.0326 13.1307L24.016 13.0917C23.7838 12.5747 23.5073 12.1689 23.1866 11.8742C22.9986 11.9187 22.783 11.9965 22.5397 12.1077L22.3186 12.2078C20.9529 12.8249 19.449 14.0535 17.8014 15.8826C17.0052 16.7888 16.2312 17.8618 15.4792 19.1015C15.1088 19.7242 14.7162 20.5303 14.296 21.531C13.9035 22.5929 13.6657 23.3768 13.5828 23.8882C13.3395 25.1224 13.24 26.1343 13.2787 26.9181C13.3174 28.2469 13.5441 29.3643 13.9532 30.2761C14.1081 30.6152 14.2021 30.7764 14.2463 30.7597C14.4066 30.7597 14.567 30.7264 14.7328 30.6485L14.8655 30.5874C15.5898 30.2594 16.3362 29.4032 17.1048 28.0245C17.6245 26.9181 17.9452 26.0453 18.0668 25.4115C18.2658 24.5331 18.382 23.7993 18.4041 23.2211C18.4428 22.0703 18.299 21.1307 17.9783 20.4136L17.9618 20.3746C17.7682 19.9354 17.5139 19.6519 17.2153 19.5129C16.9444 19.3017 16.7675 19.1071 16.6901 18.9347L16.6735 18.8958C16.5629 18.6512 16.6072 18.4233 16.8117 18.2176C16.8947 18.1509 16.9665 18.1008 17.0274 18.073C17.5913 17.8173 18.3764 17.8784 19.3716 18.2565C20.4387 18.7902 21.2238 19.6186 21.727 20.7416C22.4789 22.4205 22.4789 24.5665 21.7159 27.185C21.4174 28.1023 21.1851 28.6749 21.0303 28.914C20.389 30.1426 19.6149 31.0933 18.7137 31.766C18.3875 32.0217 18.0834 32.2108 17.8069 32.3331L17.5747 32.4387C16.2091 33.0558 14.7992 32.8612 13.3395 31.8494C12.8309 31.4157 12.4328 30.8765 12.1397 30.2316L12.0458 30.0203C11.3325 28.4303 11.1666 26.3844 11.5537 23.8827C11.6366 23.3212 11.8688 22.465 12.2559 21.3253C12.7535 20.0355 13.1792 19.146 13.522 18.6512C13.9754 17.8228 14.5449 16.9611 15.2304 16.0605C17.149 13.6644 19.0786 12.0243 21.0137 11.1459L21.1188 11.0959C22.6945 10.3843 24.2924 10.4232 25.9124 11.2126C26.7473 11.6741 27.3997 12.4246 27.8586 13.4531C28.4668 14.8096 28.8815 17.2391 29.1082 20.7471C29.6555 27.1294 29.9486 30.3539 29.9873 30.4373C30.2416 32.4887 30.5733 33.9842 30.9935 34.9182L31.0101 34.9571C31.5022 34.7014 32.0496 34.0065 32.6467 32.8723C32.8292 32.5388 33.1056 31.8605 33.476 30.8376C33.9239 29.4533 34.2888 28.03 34.5763 26.5679C35.0573 24.0439 35.4112 21.2753 35.6379 18.2565C35.9143 14.5094 35.9751 10.8068 35.8148 7.14311C35.7595 6.09237 35.6766 5.07499 35.5605 4.0854C35.5936 3.82967 35.7097 3.65176 35.9198 3.55725L35.8867 3.57393Z" fill="white"/>
  <path d="M47.221 9.98955C48.2052 9.75606 49.112 9.81165 49.9524 10.1508C50.6822 10.4899 51.1687 10.8902 51.412 11.3572C51.5005 11.0681 51.6774 10.3732 51.9317 9.26682C51.9815 8.98885 52.1639 8.81095 52.468 8.73867C53.0596 8.59969 53.8116 8.80539 54.7183 9.36689C55.227 9.76717 55.5145 10.123 55.5864 10.4343C55.6306 10.6122 55.5753 10.9625 55.4205 11.4795C55.2933 11.991 54.5082 15.2432 53.0596 21.2364C52.9159 21.8813 52.8108 22.515 52.7445 23.1321H52.7721C53.3361 22.5262 54.0659 21.5755 54.9671 20.269C55.3652 19.663 55.8186 18.9181 56.3383 18.0341L56.4323 17.9952L56.5152 17.9729C56.764 17.9118 57.0792 18.023 57.4607 18.3065C57.61 18.4288 57.6985 18.5623 57.7316 18.7012C57.7482 18.768 57.621 19.007 57.3612 19.424C56.5429 20.7805 55.9568 21.6867 55.5919 22.137C54.1267 24.1606 52.8606 25.3003 51.7824 25.5616C50.8702 25.7784 50.074 25.3893 49.3884 24.3886C49.2612 24.1718 49.1617 23.9271 49.0954 23.6436L49.0788 23.5713H49.0622C48.443 24.3941 47.9011 25.0335 47.4422 25.5005C46.6073 26.4011 45.8609 26.9292 45.214 27.0849C44.4179 27.2739 43.6272 27.1238 42.8587 26.629C42.0902 26.0731 41.5815 25.2614 41.3272 24.1829L41.3051 24.0995C41.294 24.0606 41.2829 24.0328 41.2663 24.005C41.2663 23.9661 41.2664 23.9271 41.2553 23.8882C40.918 22.4539 40.9899 20.4858 41.482 17.9952C41.7253 16.8722 42.1289 15.6658 42.6873 14.3815C43.8373 11.902 45.3467 10.4343 47.2266 9.98955H47.221ZM44.8934 24.989C44.9376 25.178 45.0039 25.3504 45.0924 25.5171C45.7061 25.1613 46.6184 24.1773 47.8348 22.5539C48.3324 21.8813 48.8134 21.1752 49.2778 20.4358C49.4271 19.613 49.9026 17.5949 50.7043 14.3871C50.7043 14.376 50.8646 13.6922 51.1909 12.3356C51.1798 12.3356 51.1743 12.3356 51.1743 12.3245L50.9973 12.3801C50.8702 12.4135 50.5771 12.419 50.1182 12.3968C50.0132 12.4024 49.8915 12.419 49.7644 12.4524L49.6814 12.4746C48.653 12.7193 47.6302 13.7255 46.6129 15.4823C46.3309 16.0327 46.0821 16.5886 45.8609 17.1557C45.5071 18.1064 45.2361 19.0682 45.0426 20.0411C44.8768 20.9584 44.7828 21.7812 44.7551 22.5039C44.7164 23.5769 44.7607 24.4052 44.8989 24.9834L44.8934 24.989Z" fill="white"/>
  <path d="M69.5526 15.0209C68.2201 18.1898 67.4516 20.1022 67.2525 20.7638C67.0093 21.581 66.8876 22.1259 66.8987 22.3927C67.2138 22.7819 67.3852 23.1266 67.4073 23.4212V23.5213C67.4295 23.7437 67.3023 23.916 67.0369 24.0383C67.0093 24.0606 66.9263 24.0828 66.7826 24.0995C66.2297 24.1384 65.4943 23.8437 64.5765 23.21C63.8799 22.6095 63.5039 21.9202 63.4486 21.1474C63.3657 20.0577 63.9462 18.123 65.1847 15.3489C66.3403 12.5914 67.059 10.8346 67.3521 10.0952L67.4129 9.74493C66.6443 10.0618 65.5773 10.8513 64.2171 12.1077C63.7527 12.558 63.139 13.2418 62.376 14.1647C61.9281 14.7095 61.7014 15.0209 61.7014 15.0931C59.2963 20.8639 57.986 23.9938 57.7759 24.4886C57.6542 24.6499 57.4718 24.7444 57.234 24.7611C56.6535 24.8055 55.9734 24.4998 55.1883 23.8493C54.7018 23.3656 54.4474 22.9375 54.4198 22.5651V22.5373C54.4087 22.415 54.5359 22.0592 54.7958 21.4698C58.3675 12.8916 60.2639 8.36063 60.474 7.87139C60.5846 7.68793 60.7615 7.58786 61.0103 7.57118C61.4471 7.53782 61.9724 7.71573 62.5861 8.10489C62.9399 8.36062 63.2164 8.6108 63.4154 8.86654C63.6698 9.22234 63.808 9.50588 63.8246 9.71713V9.78941C63.8412 9.94507 63.7638 10.1897 63.5979 10.5288H63.6145C65.3229 9.06112 66.6775 8.29391 67.6783 8.21608C68.7232 8.13825 69.6245 8.583 70.3764 9.55591C70.7026 10.0729 70.874 10.4788 70.8961 10.7734C70.8961 10.9069 70.8851 11.0681 70.8574 11.2515C71.3771 10.7512 71.8858 10.3231 72.3834 9.96731C73.539 9.15007 74.4789 8.71643 75.1977 8.66084C76.1652 8.58856 77.0167 8.97217 77.7355 9.81165C78.1722 10.3843 78.4045 10.9069 78.4376 11.3739C78.4819 11.9409 78.2939 12.6637 77.8792 13.5532C76.4251 17.0668 75.6013 19.1071 75.4022 19.6686C75.2364 20.13 75.1313 20.5081 75.0816 20.786C75.7506 20.2746 76.6684 19.4073 77.8294 18.1842C78.3049 17.6394 78.8136 17.0334 79.361 16.3663L79.4605 16.3273H79.5324C79.8531 16.2995 80.1848 16.4886 80.5221 16.9C80.5995 17.0167 80.6382 17.1112 80.6437 17.1779V17.2335C80.6548 17.3114 80.5221 17.5004 80.2456 17.8117C79.4881 18.7235 78.8468 19.4462 78.3105 19.9744C76.5025 21.8034 75.1755 22.7485 74.3296 22.8097H74.2854C73.5832 22.8653 72.8755 22.4928 72.1678 21.7033C71.7863 21.2308 71.5817 20.7416 71.543 20.2356L71.5264 20.0522C71.4601 19.1627 71.9466 17.5226 72.9861 15.1265C73.9426 12.8249 74.5729 11.2905 74.8715 10.5288L74.9212 10.2064C74.9212 10.2064 74.9046 10.2064 74.9046 10.1952C74.3462 10.4399 73.5887 10.9569 72.6212 11.7519C72.0959 12.1855 71.4324 12.8471 70.6307 13.7311C70.1718 14.2537 69.8124 14.6873 69.5471 15.0264L69.5526 15.0209Z" fill="white"/>
  <path d="M88.716 6.83735C89.8992 6.88183 90.9055 7.37662 91.7404 8.32729C92.2269 8.88879 92.5642 9.67268 92.7466 10.6678C92.824 11.1404 92.8572 11.5796 92.8461 11.9799V12.2078C92.7798 13.859 92.0776 15.7381 90.723 17.8507C90.2973 18.5011 89.7002 19.2294 88.9261 20.0466C88.1244 20.8083 87.5383 21.2975 87.1568 21.5255C85.6806 22.4817 84.3868 22.9376 83.27 22.8987L83.0101 22.8875C81.7882 22.8431 80.7709 22.1982 79.9581 20.9528C79.361 20.0077 79.0845 18.8625 79.1343 17.5115C79.2117 15.2989 80.0411 13.025 81.6168 10.6901C81.9375 10.2286 82.3411 9.77275 82.8221 9.30575C82.9493 9.2446 83.0709 9.21124 83.1815 9.2168H83.3087C83.364 9.22236 83.4635 9.23904 83.6072 9.26128C84.2099 8.67753 84.6743 8.28837 85.0061 8.09935C86.3275 7.21539 87.5549 6.79288 88.6994 6.83179L88.716 6.83735ZM85.0171 15.2433C85.0061 15.6269 85.0669 16.0661 85.1996 16.5609C85.2051 16.6109 85.2106 16.6776 85.2051 16.761C85.194 17.0501 85.0669 17.2391 84.8291 17.3225C84.7351 17.3447 84.6522 17.3614 84.5859 17.3559H84.4255C84.044 17.3392 83.5519 17.089 82.9493 16.6053C82.6065 17.6227 82.424 18.5067 82.3964 19.2628L82.3853 19.5241C82.3577 20.2412 82.4683 20.8083 82.7115 21.2197C83.8671 21.2586 85.2328 20.6137 86.814 19.2739C87.6434 18.5067 88.2073 17.9007 88.5114 17.4615C88.9593 16.8944 89.3076 16.3941 89.5509 15.9716C90.5958 14.1647 91.1432 12.5858 91.1875 11.2349V11.107C91.204 10.4288 91.1709 10.0841 91.0824 10.0841C90.8778 9.97289 90.7009 9.91174 90.5572 9.90618C89.678 9.87282 88.5888 10.3343 87.2895 11.2905C85.8133 12.5358 85.0558 13.8534 85.0061 15.2433H85.0171Z" fill="white"/>
  <path d="M99.7739 7.81025C100.211 7.8714 100.681 8.15493 101.189 8.66085C101.538 9.05557 101.764 9.3669 101.858 9.58372C102.035 9.97844 102.107 10.2842 102.08 10.501L102.068 10.5844C102.052 10.7179 101.925 10.9402 101.687 11.2571H101.715C103.683 10.1786 105.17 9.70603 106.171 9.84501C107.127 9.97844 107.868 10.5233 108.405 11.4739C108.72 12.1188 108.841 12.7026 108.77 13.2252C108.692 13.7867 108.311 14.5205 107.614 15.4323C105.098 19.0904 103.688 21.1696 103.379 21.67C103.169 22.0592 103.014 22.3705 102.903 22.604C103.639 22.2815 104.805 21.5588 106.392 20.4469C106.746 20.1856 107.288 19.7687 108.023 19.1905C108.056 19.1738 108.095 19.1682 108.139 19.1794L108.211 19.1905C108.488 19.2294 108.753 19.4685 109.024 19.9132C109.079 20.0578 109.101 20.1745 109.09 20.269V20.3246C109.074 20.3802 108.869 20.5637 108.471 20.8806C107.072 21.9535 106.071 22.6596 105.469 22.9932C103.948 23.9049 102.881 24.3886 102.267 24.4386C102.063 24.4609 101.88 24.4553 101.72 24.4386H101.704C100.996 24.3385 100.377 23.8048 99.8403 22.843C99.6578 22.4984 99.5528 22.087 99.5307 21.6088H99.5472C99.5362 21.5588 99.5362 21.4587 99.5583 21.3086L99.5694 21.2252C99.7021 20.2746 100.548 18.7068 102.118 16.5219C104.142 13.5754 105.242 11.9632 105.425 11.6796C105.502 11.524 105.557 11.3961 105.59 11.296H105.563C104.689 11.4906 103.572 11.991 102.207 12.786C101.704 13.0862 100.996 13.581 100.084 14.2759C99.2763 14.9097 98.8672 15.2655 98.8561 15.3378C98.3696 16.0549 96.4455 18.8347 93.0783 23.6714C92.9235 23.8048 92.73 23.8549 92.4923 23.8215C91.9173 23.7437 91.3091 23.2989 90.6677 22.4928C90.3028 21.9202 90.148 21.4476 90.1978 21.0751V21.0473C90.2199 20.9028 90.5018 20.458 91.0492 19.7131L97.4462 10.4454L99.1713 7.98259C99.3261 7.82693 99.5251 7.77133 99.7739 7.80469V7.81025Z" fill="white"/>
  <path d="M118.44 23.2433C117.881 23.6936 117.168 24.1662 116.311 24.6665C115.332 25.1669 114.63 25.4727 114.199 25.5838C112.518 26.0842 111.147 26.1565 110.085 25.8007L109.842 25.7173C108.681 25.3281 107.885 24.4219 107.454 22.9931C107.144 21.9202 107.205 20.7415 107.625 19.4573C108.322 17.3558 109.754 15.41 111.921 13.6143C112.358 13.2641 112.872 12.9361 113.469 12.6303C113.607 12.608 113.729 12.6136 113.84 12.647L113.961 12.6859C114.017 12.7026 114.105 12.747 114.238 12.8082C114.979 12.419 115.537 12.18 115.907 12.091C117.422 11.6185 118.722 11.5629 119.805 11.9242C120.928 12.2967 121.757 13.0639 122.293 14.2092C122.603 14.8874 122.703 15.7325 122.603 16.7387C122.548 17.2168 122.454 17.6449 122.327 18.0285L122.255 18.2453C121.962 19.1404 121.447 20.0411 120.712 20.9584L120.767 20.9306C120.994 20.8249 121.271 20.6915 121.597 20.5247L127.159 17.4726C127.43 17.139 127.911 16.7332 128.602 16.2551C129.028 15.9715 129.492 15.7047 130.001 15.4489C130.161 15.4211 130.305 15.4267 130.432 15.4712C130.957 15.6491 131.444 16.1383 131.892 16.9444C132.229 17.6338 132.329 18.1731 132.201 18.5622L132.179 18.629C132.118 18.8124 131.925 18.9736 131.599 19.1182C130.067 19.9799 129.16 20.8361 128.884 21.6811L128.856 21.7645C128.856 21.7645 128.834 21.8145 128.818 21.8256C128.619 22.4261 128.619 23.3601 128.812 24.6276C128.845 25.317 128.779 25.9119 128.613 26.4122L128.547 26.6179C128.326 27.2906 127.894 27.9522 127.258 28.5971H127.269C127.54 28.5415 128.491 28.0912 130.128 27.2517C131.167 26.6902 131.72 26.4011 131.787 26.3788L131.936 26.4289C132.179 26.5123 132.389 26.7736 132.566 27.2183C132.622 27.4185 132.633 27.5686 132.599 27.6686C132.572 27.752 132.406 27.8688 132.107 28.0189C130.277 28.9918 128.967 29.6478 128.171 29.9814C126.96 30.4484 126.125 30.6874 125.655 30.7041C125.279 30.7708 124.721 30.7875 123.98 30.7486C123.079 30.6708 122.421 30.5596 122.006 30.4206C120.557 29.9369 119.518 28.9807 118.882 27.5575C118.639 26.8681 118.617 26.2121 118.827 25.5838C119.114 24.7166 119.789 24.005 120.861 23.4434C121.818 23.0432 122.703 22.982 123.515 23.2544H123.526C123.941 23.399 124.218 23.5991 124.356 23.8549C124.538 24.1773 124.599 24.4442 124.533 24.6443C124.439 24.7777 124.345 24.8222 124.245 24.7888C124.124 24.7388 124.013 24.6943 123.924 24.6665L123.764 24.6109C123.283 24.4497 122.675 24.4942 121.94 24.7444C121.32 25.0335 120.933 25.2725 120.767 25.4615C120.386 25.7895 120.154 26.0842 120.065 26.3511C120.353 26.6068 120.629 26.7791 120.889 26.8681C121.796 27.1683 122.94 26.857 124.323 25.923C125.185 25.228 125.732 24.5275 125.97 23.8215C126.131 23.3378 126.153 22.8486 126.037 22.3427C125.92 21.2419 125.915 20.4413 126.031 19.9465H126.02C122.686 21.7589 120.159 22.8541 118.451 23.2322L118.44 23.2433ZM111.556 19.7019C111.556 19.7019 111.54 19.6908 111.534 19.6797C110.92 20.5581 110.495 21.3531 110.262 22.0758L110.179 22.3204C109.953 23.0043 109.897 23.5769 110.019 24.0383C111.114 24.4052 112.607 24.1717 114.503 23.3378L114.99 23.0932C113.79 22.8041 112.872 22.2593 112.242 21.4643C111.81 20.8527 111.584 20.269 111.556 19.7019ZM117.074 21.7589C117.461 21.4643 117.787 21.1919 118.053 20.9473C119.562 19.5129 120.53 18.1508 120.955 16.8666L120.994 16.7443C121.199 16.0938 121.26 15.7547 121.177 15.7269C121.011 15.5601 120.861 15.4545 120.723 15.41C119.888 15.132 118.716 15.2655 117.196 15.8103C115.432 16.5831 114.332 17.6338 113.895 18.9514C113.84 19.1126 113.795 19.2905 113.762 19.4851C113.74 19.7686 113.779 20.0355 113.889 20.2857C114.011 20.5192 114.193 20.7193 114.426 20.8917C114.78 21.1585 115.161 21.3642 115.581 21.5032C116.051 21.6589 116.549 21.7423 117.063 21.7589H117.074Z" fill="white"/>
  <path d="M23.3106 58.6157C23.8507 58.7265 24.3797 59.1642 24.8921 59.94C25.1787 60.4497 25.2889 60.8653 25.2227 61.1866V61.2254C25.1842 61.3695 24.9913 61.6687 24.6276 62.1286C24.1152 62.8045 21.7788 65.7965 17.6074 71.1046L14.2791 75.2824C14.1304 75.4098 13.9485 75.4541 13.7281 75.4098C13.3369 75.3322 12.9291 75.0496 12.4993 74.5676C12.2513 74.2628 12.0695 73.9747 11.9482 73.7032C11.8105 73.3375 11.7609 73.0605 11.7995 72.8666L11.8105 72.8001C11.838 72.6671 12.0033 72.4178 12.3119 72.0521C17.387 65.6303 20.0705 62.2227 20.3571 61.8404C20.3791 61.8294 21.0238 61.0093 22.2912 59.397C22.5116 59.0811 22.6825 58.854 22.7927 58.7154C22.9359 58.6102 23.1123 58.5825 23.3106 58.6212V58.6157ZM30.0994 54.3216C31.8132 54.6651 33.3285 55.2248 34.651 56.0005C35.2847 56.3994 35.8357 56.9202 36.3041 57.5519C37.1196 58.8096 37.4062 60.0397 37.1637 61.2476L37.1362 61.4027C36.8386 62.9153 35.709 64.5 33.7528 66.1678C32.8436 66.9047 31.8297 67.5807 30.7056 68.1902C28.6943 69.1986 26.9199 69.8081 25.3825 70.0075C25.6305 73.9304 26.0217 76.5235 26.5563 77.7757C26.6554 77.9696 26.7216 78.0749 26.7436 78.0915C27.0191 78.0694 27.3773 77.8976 27.8071 77.5762C28.2424 77.2549 28.4904 77.1053 28.5565 77.1163C28.5565 77.1108 28.5841 77.1053 28.6392 77.1053L28.7384 77.1274C28.9973 77.1773 29.2729 77.4377 29.5594 77.9031C29.6476 78.1137 29.6806 78.291 29.6531 78.435C29.6366 78.5292 29.2839 78.7897 28.6061 79.2274C27.9283 79.6651 27.3387 79.8147 26.8373 79.6873C25.6966 79.4601 24.7764 78.5348 24.0711 76.9058C23.6413 75.9195 23.2996 74.2906 23.0406 72.0133C22.8974 70.75 22.7816 69.2595 22.7045 67.5363L22.721 67.4588C22.7761 67.1873 22.9525 67.0432 23.2555 67.0211C24.1647 66.8936 24.9913 66.7108 25.7352 66.4725C26.7491 66.1567 27.8457 65.6747 29.0359 65.0264C30.0829 64.4003 30.8819 63.8573 31.4274 63.4029C33.2403 61.8681 34.2763 60.4552 34.5298 59.1642C34.6234 58.5049 34.5959 58.1558 34.4471 58.1281C33.2844 57.2693 31.8627 56.6709 30.1821 56.3329L30.0553 56.3052C27.9173 55.8786 25.4376 55.9783 22.6163 56.6155C21.652 56.8371 20.6712 57.1696 19.6793 57.6184C19.2715 57.8123 18.7701 58.1004 18.175 58.4938C17.376 59.1088 16.8249 59.6352 16.5219 60.0674C15.9488 60.7822 15.5575 61.5468 15.3426 62.3613L15.3151 62.4998C15.293 62.5995 15.3371 62.7103 15.4363 62.8267C15.5961 63.1425 15.6512 63.414 15.6016 63.6412C15.563 63.8351 15.4088 63.9238 15.1387 63.9071H15.1167C14.6428 63.8074 14.191 63.3586 13.7501 62.5552C13.5077 61.9568 13.4526 61.3251 13.5848 60.6547C13.8107 59.5078 14.5491 58.3442 15.8055 57.1696C16.5108 56.5324 17.3319 55.9949 18.2742 55.5461C19.8777 54.8092 21.7347 54.3105 23.8396 54.0557C25.906 53.8063 28 53.895 30.1104 54.3161L30.0994 54.3216Z" fill="white"/>
  <path d="M38.2768 62.3114C38.6736 62.3003 39.1309 62.4832 39.6599 62.8599C39.9685 63.1037 40.211 63.342 40.3873 63.5802C40.6022 63.9127 40.7124 64.1731 40.7179 64.3615V64.428C40.7179 64.5776 40.6022 64.8768 40.3543 65.3311C38.1115 70.0463 36.8056 72.8167 36.4309 73.6423C36.1774 74.2462 36.0562 74.5787 36.0562 74.6396C36.4694 74.3626 37.318 73.5592 38.5909 72.2349C39.8142 70.8774 40.8392 69.6308 41.6602 68.4949C42.3766 67.5308 43.0323 66.5667 43.6274 65.5971C44.6083 63.5193 45.1262 62.4278 45.1868 62.3225C45.3026 62.1895 45.4679 62.123 45.6828 62.1175C46.1457 62.1064 46.6857 62.3557 47.3028 62.8655C47.8318 63.3697 48.1018 63.8019 48.1129 64.1565V64.2507C48.1129 64.3781 48.0247 64.6219 47.8373 64.971C45.4348 70.0186 44.0407 72.9718 43.655 73.8196C43.5117 74.1797 43.3739 74.5343 43.2582 74.8834H43.2858C43.9029 74.4623 44.7295 73.7531 45.7654 72.7668C46.2173 72.307 46.7573 71.7307 47.3745 71.0492L47.4626 71.0326H47.5398C47.7712 71.027 48.0357 71.1822 48.3278 71.5035C48.4325 71.6365 48.4876 71.7695 48.4931 71.9025C48.4931 71.9634 48.3388 72.1518 48.0302 72.4732C47.0659 73.5093 46.3771 74.2019 45.9638 74.5399C44.2887 76.0525 42.9496 76.8227 41.9523 76.8504C41.1092 76.8725 40.4755 76.3739 40.0567 75.3544C39.9851 75.1494 39.941 74.9167 39.9355 74.6562V74.6285C39.9189 74.0634 40.1173 73.2711 40.5196 72.2515C39.412 73.4761 38.6075 74.3127 38.1005 74.7671C36.756 76.0082 35.8192 76.6288 35.2957 76.6454C35.2847 76.6565 35.2076 76.6675 35.0533 76.6786C34.2543 76.7008 33.5875 76.3462 33.064 75.6148C32.8381 75.2325 32.7224 74.828 32.7114 74.4014C32.6893 73.5038 33.2734 71.8803 34.4637 69.5366C34.5628 69.3094 35.6704 66.9712 37.7864 62.5275C37.9132 62.389 38.0785 62.3114 38.2823 62.3059L38.2768 62.3114Z" fill="white"/>
  <path d="M60.0098 66.7939C59.2108 69.797 58.7699 71.6033 58.6707 72.2183C58.555 72.9829 58.5164 73.4816 58.5605 73.7199C58.8911 74.0301 59.084 74.3127 59.1446 74.5787L59.1667 74.6673C59.2108 74.8613 59.1171 75.033 58.8911 75.1771C58.8691 75.1992 58.7975 75.2269 58.6707 75.2657C58.1803 75.371 57.4915 75.1992 56.5878 74.7504C55.8935 74.3016 55.4692 73.7309 55.3204 73.0494C55.111 72.0853 55.3865 70.2846 56.147 67.6472C56.8303 65.0375 57.2601 63.3752 57.4254 62.6771L57.4364 62.3557C56.7862 62.738 55.9321 63.5747 54.8741 64.8712C54.5159 65.3311 54.053 66.0237 53.4855 66.9435C53.1548 67.4865 52.9895 67.7912 52.995 67.8633C51.5679 73.3209 50.7909 76.2908 50.6642 76.7562C50.576 76.9169 50.4272 77.0222 50.2178 77.0665C49.7053 77.1773 49.0551 76.9945 48.2726 76.5069C47.7767 76.1356 47.4957 75.7866 47.424 75.4541V75.4264C47.3965 75.3156 47.4626 74.9832 47.6224 74.4235C49.7439 66.3063 50.868 62.0122 50.9948 61.5523C51.0719 61.375 51.2207 61.2642 51.4356 61.2143C51.8213 61.1312 52.3118 61.2199 52.9124 61.4914C53.2595 61.6742 53.5406 61.8626 53.75 62.0676C54.0255 62.3557 54.1798 62.5884 54.2183 62.7768L54.2294 62.8433C54.2569 62.9763 54.2183 63.209 54.1136 63.5304H54.1247C55.4692 62.0011 56.5823 61.1423 57.464 60.9484C58.3897 60.7489 59.2493 61.0315 60.0428 61.8072C60.3955 62.2283 60.6049 62.5663 60.66 62.8267C60.6765 62.9486 60.6875 63.0927 60.6875 63.2589C61.0898 62.7491 61.4865 62.3003 61.8888 61.918C62.82 61.0426 63.6025 60.5328 64.2417 60.3943C65.1013 60.2059 65.9059 60.4442 66.6553 61.1035C67.1126 61.5634 67.3881 61.9956 67.4818 62.4111C67.592 62.9098 67.5149 63.5802 67.2559 64.428C66.3963 67.7524 65.9169 69.6751 65.8122 70.207C65.7185 70.6447 65.6744 70.9883 65.6689 71.2487C66.2034 70.7057 66.9143 69.8136 67.8014 68.578C68.1596 68.0295 68.5398 67.4255 68.9421 66.7606L69.0247 66.7163L69.0853 66.7052C69.3719 66.6443 69.6915 66.7717 70.0441 67.0931C70.1268 67.1928 70.1764 67.2704 70.1874 67.3258L70.1984 67.3757C70.215 67.4422 70.1158 67.6306 69.9119 67.9408C69.3498 68.8495 68.8649 69.5809 68.4516 70.1184C67.063 71.9801 65.9995 72.994 65.2501 73.1602L65.2116 73.1713C64.5889 73.3043 63.9111 73.066 63.1782 72.4455C62.7815 72.0742 62.5335 71.6587 62.4343 71.2099L62.4013 71.0437C62.2304 70.2569 62.4619 68.7276 63.0901 66.4559C63.6576 64.2784 64.0268 62.8267 64.1976 62.1064V61.8127C64.1976 61.8127 64.1866 61.8127 64.1866 61.8017C63.7182 62.0898 63.1066 62.6494 62.3406 63.4805C61.9274 63.9349 61.4149 64.6108 60.8088 65.5029C60.4671 66.0293 60.1971 66.4614 60.0042 66.7939H60.0098Z" fill="white"/>
  <path d="M73.7967 46.4482H73.8077C74.3422 46.3041 75.0035 46.4703 75.7915 46.9413C76.2764 47.2682 76.5574 47.5785 76.6346 47.8722L76.6566 47.9608C76.6897 48.0882 76.6566 48.3431 76.5519 48.7254L74.6343 57.5851H74.6563C75.6978 56.2831 76.5684 55.5461 77.2683 55.3577L77.3674 55.33C78.0232 55.1583 78.7065 55.2746 79.4063 55.6791C80.1281 56.1501 80.6296 56.9313 80.9106 58.0229C81.2633 59.3693 81.2467 61.1534 80.8665 63.3752C80.6847 64.3726 80.3651 65.4475 79.9187 66.5944C78.9214 68.9493 77.5823 70.3511 75.9017 70.7943L75.8245 70.8165C74.717 71.1102 73.7361 70.9993 72.882 70.4785C72.3806 70.135 72.0995 69.8635 72.0389 69.6529H72.0169C71.7634 70.8775 71.6201 71.5423 71.576 71.6421C71.4768 71.7861 71.3446 71.8803 71.1683 71.9247C70.6999 72.0465 70.1103 71.9247 69.3939 71.559C68.7713 71.1877 68.4186 70.8331 68.3304 70.4951L68.3084 70.4065C68.2753 70.2901 68.3084 70.0574 68.3966 69.7139L71.5815 55.0308C72.6616 49.9721 73.2622 47.2183 73.3724 46.7585C73.4551 46.6033 73.5983 46.4981 73.7967 46.4426V46.4482ZM72.2152 68.8052H72.2263L72.2979 68.772L72.4246 68.7387C72.5348 68.711 72.8104 68.6944 73.2567 68.6944L73.5487 68.6445C74.5737 68.373 75.527 67.3535 76.4086 65.5916C76.866 64.5831 77.1801 63.7188 77.3454 62.9929C77.5493 62.1951 77.6926 61.2642 77.7917 60.2004C77.8744 58.9094 77.8193 57.912 77.643 57.2194V57.1973C77.5934 57.0366 77.5328 56.887 77.4501 56.7485C76.9156 57.0975 76.1772 57.9065 75.2294 59.1864C74.8878 59.6518 74.4194 60.3721 73.8298 61.3418C72.7883 66.1179 72.2538 68.6057 72.2152 68.8052Z" fill="white"/>
  <path d="M88.1623 52.2549C89.0605 52.0832 89.876 52.1663 90.6199 52.5098C91.2646 52.8422 91.6834 53.2246 91.8873 53.6567C91.981 53.4019 92.1628 52.7813 92.4383 51.7895C92.4934 51.5402 92.6642 51.3906 92.9453 51.3352C93.4853 51.2299 94.1575 51.4515 94.951 51.9945C95.3919 52.3768 95.6398 52.7093 95.6949 52.9863C95.728 53.147 95.6619 53.4628 95.5021 53.9227C95.3698 54.3826 94.5323 57.2804 92.9894 62.6272C92.8351 63.2035 92.7138 63.7686 92.6257 64.3227H92.6532C93.1877 63.8019 93.882 62.9708 94.7417 61.8294C95.1219 61.2975 95.5627 60.6437 96.0641 59.8679L96.1523 59.8402L96.2295 59.8236C96.4554 59.7793 96.7364 59.8901 97.0725 60.1616C97.1993 60.278 97.2764 60.3999 97.2985 60.5273C97.3095 60.5882 97.1883 60.7988 96.9348 61.1645C96.1468 62.3557 95.5792 63.1481 95.2321 63.5415C93.8324 65.309 92.6422 66.2897 91.6614 66.4725C90.8348 66.6332 90.1295 66.2454 89.5509 65.3201C89.4407 65.1206 89.3635 64.8934 89.3139 64.6385L89.3029 64.5721H89.2919C88.7023 65.2868 88.1898 65.8464 87.7545 66.2454C86.9665 67.0211 86.2722 67.4699 85.6826 67.5807C84.9552 67.7192 84.2499 67.553 83.5721 67.0709C82.8999 66.539 82.47 65.7855 82.2882 64.8048L82.2717 64.7272C82.2662 64.694 82.2551 64.6663 82.2441 64.6385C82.2441 64.6053 82.2441 64.5665 82.2386 64.5333C81.9906 63.2257 82.1339 61.4581 82.6739 59.2252C82.9384 58.2223 83.3517 57.153 83.9027 56.0116C85.0379 53.8174 86.4596 52.5597 88.1678 52.2272L88.1623 52.2549ZM85.4732 65.6913C85.5063 65.8631 85.5559 66.0237 85.633 66.1789C86.2006 65.8852 87.0602 65.0319 88.2229 63.619C88.6968 63.0317 89.1596 62.4167 89.606 61.7684C89.7713 61.0315 90.2838 59.2308 91.1324 56.3717C91.1324 56.3606 91.3032 55.7512 91.6503 54.5377C91.6393 54.5377 91.6393 54.5377 91.6338 54.5266L91.4685 54.571C91.3528 54.5931 91.0883 54.5876 90.675 54.5543C90.5813 54.5543 90.4711 54.5654 90.3554 54.5876L90.2782 54.6042C89.3415 54.7871 88.3772 55.6459 87.3908 57.1973C87.1153 57.6849 86.8673 58.1725 86.6469 58.6767C86.2887 59.5189 86.0077 60.3777 85.7928 61.2476C85.6054 62.0676 85.4897 62.8046 85.4401 63.4584C85.363 64.428 85.374 65.1705 85.4732 65.6968V65.6913Z" fill="white"/>
  <path d="M2.27364 77.994C6.29425 86.0401 15.8372 88.7133 26.7291 88.7397C50.9662 88.7397 70.6153 80.1537 74.4001 79.0607C74.7188 78.9641 74.828 78.9509 74.828 79.0782C74.828 79.2845 74.649 79.3065 74.5005 79.3811C69.9212 81.6549 48.9363 91.9353 20.1939 91.9353C6.9578 91.9353 2.91973 82.4582 1.5577 78.3759C1.34379 77.7394 1.18227 77.1249 1.44856 77.1249C1.80217 77.1249 1.86329 77.1732 2.26928 77.9896L2.27364 77.994Z" fill="url(#paint1_linear_116_3470)"/>
  <path d="M53.9617 31.7675C54.5031 31.7675 55.0837 32.1143 55.7036 32.8035C55.9349 33.1371 56.0528 33.4268 56.0528 33.677C56.0528 33.7911 55.9306 34.0721 55.6905 34.5198C55.6075 34.6778 53.9137 38.0227 50.6047 44.55C48.8585 47.965 47.9854 49.7121 47.9854 49.7867C47.933 49.8789 47.8282 50.1335 47.6711 50.5461H47.6842C48.1818 50.2344 48.8629 49.6901 49.7272 48.9088C49.9979 48.6761 50.5479 48.1318 51.3774 47.2846L51.4341 47.2715H51.504C51.7223 47.2715 51.9493 47.4076 52.1806 47.6797C52.2723 47.8026 52.316 47.9124 52.316 48.0089V48.0528C52.316 48.1055 52.185 48.2591 51.9187 48.5181C49.5177 50.9851 47.7104 52.2229 46.5055 52.2229C45.7765 52.2229 45.2351 51.7927 44.8903 50.928C44.8204 50.7305 44.7899 50.5329 44.7899 50.3354V50.2915C44.7899 50.2915 44.7899 50.2608 44.7768 50.2476C44.7855 50.23 44.7899 50.2169 44.7899 50.2037V50.1686C43.5413 51.1914 42.5722 51.8191 41.8868 52.0561C41.6249 52.1483 41.3761 52.1922 41.1403 52.1922C40.4418 52.1922 39.8263 51.8893 39.2981 51.2835C38.8834 50.7085 38.6782 49.9886 38.6782 49.1239C38.6782 47.8992 39.0885 46.3804 39.9093 44.5675C40.2716 43.8169 40.7605 43.0092 41.3761 42.1357C42.7556 40.3272 44.2267 39.4229 45.7939 39.4229C46.6059 39.4229 47.3 39.6336 47.8719 40.0594C48.2342 40.3623 48.4612 40.6081 48.5616 40.7969C48.6882 40.9988 48.7625 41.1656 48.7756 41.2841H48.7887C51.7615 35.3933 53.3506 32.2723 53.547 31.9256C53.6518 31.8202 53.7915 31.7675 53.9661 31.7675H53.9617ZM41.2844 50.5241C41.2975 50.8182 41.3237 50.9675 41.3542 50.9675C41.9348 50.7612 42.7861 50.1993 43.908 49.2731C44.4887 48.7727 45.0212 48.2855 45.5102 47.807C45.9555 46.8676 46.8111 45.1557 48.0858 42.6712L48.4481 41.9338H48.435C48.3652 41.9469 48.3041 41.9557 48.243 41.9557C48.1469 41.9557 47.9243 41.9074 47.575 41.8065C47.4921 41.7933 47.3961 41.7845 47.2913 41.7845H47.2214C46.3571 41.7845 45.3574 42.4035 44.2267 43.6369C43.6767 44.2954 43.2096 44.9757 42.8254 45.6693C42.4805 46.2838 42.1269 47.0783 41.7646 48.0528C41.4415 49.1151 41.28 49.9359 41.28 50.5198L41.2844 50.5241Z" fill="white"/>
  <path d="M57.7248 39.1771C58.4233 39.1771 59.1043 39.4668 59.7591 40.0419C60.1956 40.4984 60.4139 40.9066 60.4139 41.2666V41.3675C60.4139 42.0172 59.7853 43.0224 58.528 44.3788C57.6637 45.2435 56.9477 45.8888 56.3802 46.3189C55.769 46.8018 55.1841 47.2144 54.6166 47.5568C54.4201 47.6621 54.1756 47.7894 53.8832 47.9299C53.6736 48.6849 53.5688 49.3521 53.5688 49.9272C53.5688 50.2915 53.6212 50.669 53.726 51.0641C54.1494 51.0641 54.8217 50.7656 55.7472 50.1686C56.2012 49.8789 56.8037 49.396 57.5676 48.7156C57.8165 48.4962 58.2967 48.0177 59.0126 47.2846L59.0693 47.2715H59.161C59.3793 47.2715 59.6019 47.4339 59.8289 47.7587C59.925 47.886 59.9774 47.9782 59.9774 48.0309C59.9774 48.0923 59.8551 48.2372 59.615 48.4742C58.6983 49.4048 58.0085 50.0413 57.5458 50.3837C56.9652 50.8446 56.4632 51.1957 56.031 51.4284C55.0313 51.9508 54.263 52.2141 53.726 52.2141H53.5907C52.7001 52.2141 51.958 51.6391 51.3555 50.489C51.0936 49.8964 50.9583 49.2424 50.9583 48.5225C50.9583 47.3241 51.2682 46.0424 51.8838 44.6729C52.2548 43.9178 52.7438 43.1014 53.3506 42.2323C53.63 41.846 54.0709 41.3456 54.6733 40.731C55.7952 39.6951 56.8124 39.1771 57.7248 39.1771ZM54.6646 46.06H54.6864C55.1841 45.7132 55.8913 45.125 56.8124 44.2997C57.489 43.6413 57.9605 43.1497 58.2224 42.8205C58.6503 42.2893 58.9427 41.8723 59.0912 41.5607L59.0693 41.5475C58.563 41.6836 58.0304 41.9777 57.4672 42.4342C57.0525 42.781 56.629 43.2155 56.1925 43.7291C55.7559 44.291 55.3631 44.8528 55.0182 45.4235C54.9352 45.5683 54.8174 45.779 54.6689 46.06H54.6646Z" fill="white"/>
  <defs>
    <linearGradient id="paint0_linear_116_3470" x1="70.2838" y1="30.4515" x2="157.764" y2="30.4515" gradientUnits="userSpaceOnUse">
      <stop stop-color="#8D2F88"/>
      <stop offset="0.25" stop-color="#C82E7F"/>
      <stop offset="0.37" stop-color="#E72E7B"/>
      <stop offset="0.39" stop-color="#E73475"/>
      <stop offset="0.56" stop-color="#ED6647"/>
      <stop offset="0.69" stop-color="#F1862B"/>
      <stop offset="0.77" stop-color="#F39221"/>
      <stop offset="1" stop-color="#F5E83C"/>
    </linearGradient>
    <linearGradient id="paint1_linear_116_3470" x1="1.31323" y1="84.5389" x2="74.828" y2="84.5389" gradientUnits="userSpaceOnUse">
      <stop stop-color="#8D2F88"/>
      <stop offset="0.25" stop-color="#C82E7F"/>
      <stop offset="0.37" stop-color="#E72E7B"/>
      <stop offset="0.39" stop-color="#E73475"/>
      <stop offset="0.56" stop-color="#ED6647"/>
      <stop offset="0.69" stop-color="#F1862B"/>
      <stop offset="0.77" stop-color="#F39221"/>
      <stop offset="1" stop-color="#F5E83C"/>
    </linearGradient>
  </defs>
</svg>