<svg width="47" height="47" viewBox="0 0 47 47" fill="none" xmlns="http://www.w3.org/2000/svg">
<g id="Group">
<path id="Vector" d="M23.5803 46.1611C36.0955 46.1611 46.2411 36.0155 46.2411 23.5002C46.2411 10.985 36.0955 0.839355 23.5803 0.839355C11.065 0.839355 0.919434 10.985 0.919434 23.5002C0.919434 36.0155 11.065 46.1611 23.5803 46.1611Z" fill="#FF067E"/>
<path id="Vector_2" d="M36.2771 16.0138C36.2771 15.8829 36.2737 15.8762 36.1361 15.8795C35.8037 15.8795 35.4747 15.8426 35.1491 15.7922C33.964 15.6143 30.1167 13.5967 29.4654 10.2966C29.452 10.2328 29.3076 9.41363 29.3076 9.06449C29.3076 8.91006 29.3076 8.9067 29.1532 8.9067C29.1163 8.9067 29.0827 8.9067 29.0458 8.9067C27.5418 8.9067 26.0344 8.9067 24.5304 8.9067C24.2282 8.9067 24.2685 8.86977 24.2685 9.17192C24.2685 15.6982 24.2685 22.2246 24.2685 28.7509C24.2685 28.996 24.2618 29.2377 24.2182 29.476C23.9899 30.7383 23.3453 31.7287 22.2509 32.4035C21.3042 32.9876 20.2735 33.1555 19.1791 32.9373C18.8333 32.8701 18.511 32.7392 18.1887 32.6116C18.1618 32.5881 18.135 32.5646 18.1115 32.5411C18.0041 32.4505 17.8832 32.3733 17.7657 32.2927C16.3725 31.3292 15.7111 29.9897 15.9125 28.3145C16.1173 26.6157 17.0943 25.4609 18.7057 24.8667C19.1858 24.6887 19.6927 24.6149 20.2064 24.6451C20.5387 24.6619 20.8677 24.7055 21.1866 24.7962C21.2974 24.8264 21.3579 24.7894 21.3646 24.6719C21.3646 24.6317 21.3646 24.588 21.3646 24.5477C21.3646 23.3761 21.3209 20.8179 21.3142 20.8112C21.3142 20.4755 21.3142 20.1364 21.3243 19.8007C21.3243 19.7033 21.2773 19.6866 21.1967 19.6765C20.5891 19.606 19.9814 19.5892 19.3704 19.6362C18.5278 19.6966 17.7086 19.8712 16.913 20.1566C15.644 20.6131 14.5327 21.3181 13.5726 22.2581C12.7467 23.0672 12.0988 24.0005 11.6255 25.0547C11.1689 26.0618 10.9104 27.1193 10.8365 28.2205C10.8063 28.6972 10.8097 29.1772 10.8567 29.6573C10.9171 30.3187 11.0447 30.9666 11.2461 31.6011C11.8235 33.4207 12.8777 34.9113 14.3716 36.0964C14.5227 36.2172 14.6704 36.3482 14.8517 36.4254C14.9289 36.4925 15.0027 36.5597 15.08 36.6268C15.3217 36.8081 15.5802 36.9659 15.8521 37.0968C17.524 37.9227 19.2865 38.2584 21.143 38.0335C23.5534 37.738 25.561 36.6704 27.1389 34.8307C28.6261 33.0984 29.3479 31.0673 29.3613 28.7945C29.3815 25.5448 29.3647 22.2951 29.3681 19.042C29.3681 18.9648 29.3244 18.854 29.4083 18.8137C29.4755 18.7835 29.5426 18.8708 29.6064 18.9144C30.815 19.71 32.1209 20.2841 33.5343 20.6064C34.3568 20.7944 35.186 20.9086 36.032 20.9086C36.2972 20.9086 36.3342 20.8951 36.3342 20.6299C36.3342 19.4751 36.2737 16.3193 36.2771 16.0138Z" fill="white"/>
</g>
</svg>
