<svg width="46" height="47" viewBox="0 0 46 47" fill="none" xmlns="http://www.w3.org/2000/svg">
<g id="Group">
<path id="Vector" d="M23.3391 46.1611C35.8543 46.1611 45.9999 36.0155 45.9999 23.5002C45.9999 10.985 35.8543 0.839355 23.3391 0.839355C10.8238 0.839355 0.678223 10.985 0.678223 23.5002C0.678223 36.0155 10.8238 46.1611 23.3391 46.1611Z" fill="#FF067E"/>
<path id="Vector_2" d="M18.7599 36.5492C29.8285 36.5492 35.8814 27.3808 35.8814 19.4277C35.8814 19.1658 35.8747 18.9073 35.8647 18.6488C37.0397 17.7995 38.0602 16.7386 38.866 15.5334C37.7883 16.0135 36.6268 16.3358 35.4115 16.4801C36.6536 15.7348 37.607 14.5565 38.0569 13.1532C36.8953 13.8414 35.6062 14.345 34.2365 14.6135C33.1387 13.4452 31.5742 12.7134 29.8453 12.7134C26.5217 12.7134 23.8259 15.4092 23.8259 18.7294C23.8259 19.2028 23.8796 19.6593 23.9837 20.1025C18.9815 19.8507 14.5467 17.4571 11.5823 13.8145C11.0653 14.7042 10.7665 15.7382 10.7665 16.8393C10.7665 18.9275 11.8274 20.7706 13.4455 21.8482C12.4585 21.818 11.5319 21.5461 10.7195 21.0962C10.7195 21.1197 10.7195 21.1466 10.7195 21.1734C10.7195 24.0874 12.7942 26.5214 15.5471 27.072C15.0402 27.2096 14.5098 27.2835 13.9625 27.2835C13.5765 27.2835 13.1971 27.2465 12.8312 27.176C13.5966 29.5663 15.819 31.3053 18.4511 31.3557C16.3898 32.9705 13.798 33.9306 10.978 33.9306C10.4912 33.9306 10.0145 33.9038 9.54114 33.8467C12.2034 35.5522 15.3658 36.5492 18.7633 36.5492" fill="white"/>
</g>
</svg>
