<svg width="47" height="47" viewBox="0 0 47 47" fill="none" xmlns="http://www.w3.org/2000/svg">
<g id="Group">
<path id="Vector" d="M23.4196 46.1611C35.9349 46.1611 46.0805 36.0155 46.0805 23.5002C46.0805 10.985 35.9349 0.839355 23.4196 0.839355C10.9044 0.839355 0.758789 10.985 0.758789 23.5002C0.758789 36.0155 10.9044 46.1611 23.4196 46.1611Z" fill="#FF067E"/>
<path id="Vector_2" d="M37.8958 16.2287C37.55 14.9295 36.526 13.9056 35.2235 13.5564C32.8667 12.9253 23.4197 12.9253 23.4197 12.9253C23.4197 12.9253 13.9726 12.9253 11.6159 13.5564C10.3167 13.9056 9.29273 14.9262 8.94359 16.2287C8.31244 18.5855 8.31244 23.5004 8.31244 23.5004C8.31244 23.5004 8.31244 28.4152 8.94359 30.772C9.28938 32.0712 10.3133 33.0951 11.6159 33.4443C13.9726 34.0754 23.4197 34.0754 23.4197 34.0754C23.4197 34.0754 32.8667 34.0754 35.2235 33.4443C36.5227 33.0951 37.5466 32.0746 37.8958 30.772C38.5269 28.4152 38.5269 23.5004 38.5269 23.5004C38.5269 23.5004 38.5269 18.5855 37.8958 16.2287ZM20.3982 28.0325V18.9682L28.2473 23.5004L20.3982 28.0325Z" fill="white"/>
</g>
</svg>
